<svg width="4948" height="4799" viewBox="0 0 4948 4799" fill="none" xmlns="http://www.w3.org/2000/svg">
<path d="M2473.77 4798.03C3840 4798.03 4947.55 4158.58 4947.55 3369.79C4947.55 2580.99 3840 1941.55 2473.77 1941.55C1107.55 1941.55 0 2580.99 0 3369.79C0 4158.58 1107.55 4798.03 2473.77 4798.03Z" fill="#F0F0F0"/>
<path d="M3894.45 3865.36C3732.24 3771.71 3732.24 3619.89 3894.45 3526.23C4056.67 3432.58 4319.68 3432.58 4481.9 3526.23C4644.11 3619.89 4644.11 3771.71 4481.9 3865.36C4319.68 3959.02 4056.67 3959.02 3894.45 3865.36Z" fill="#E0E0E0"/>
<path d="M595.108 3878.38L168.411 3632.06C144.367 3618.21 144.367 3595.63 168.411 3581.77L2650.37 2148.81C2663.86 2141.97 2678.77 2138.41 2693.89 2138.41C2709.02 2138.41 2723.93 2141.97 2737.41 2148.81L3164.22 2395.13C3188.26 2408.99 3188.26 2431.56 3164.22 2445.42L682.254 3878.38C668.746 3885.22 653.82 3888.78 638.681 3888.78C623.542 3888.78 608.616 3885.22 595.108 3878.38Z" fill="#E0E0E0"/>
<path d="M2128.87 3439.3L2495.72 3227.21C2533.52 3205.37 2552.41 3176.81 2552.41 3148.15C2552.41 3119.48 2552.41 3097.12 2552.41 3097.12L2171.91 2882.51C2161.29 2875.64 2152.43 2866.35 2146.08 2855.4C2139.73 2844.45 2136.06 2832.15 2135.38 2819.51V2367.09L1494.91 2737.3V3189.51C1495.65 3202.14 1499.34 3214.42 1505.68 3225.36C1512.03 3236.3 1520.85 3245.6 1531.45 3252.51L1855.25 3438.98C1930.64 3482.97 2053.27 3482.97 2128.87 3439.3Z" fill="#08732B"/>
<g opacity="0.6">
<path d="M2128.87 3439.3L2495.72 3227.21C2533.52 3205.37 2552.41 3176.81 2552.41 3148.15C2552.41 3119.48 2552.41 3097.12 2552.41 3097.12L2171.91 2882.51C2161.29 2875.64 2152.43 2866.35 2146.08 2855.4C2139.73 2844.45 2136.06 2832.15 2135.38 2819.51V2367.09L1494.91 2737.3V3189.51C1495.65 3202.14 1499.34 3214.42 1505.68 3225.36C1512.03 3236.3 1520.85 3245.6 1531.45 3252.51L1855.25 3438.98C1930.64 3482.97 2053.27 3482.97 2128.87 3439.3Z" fill="black"/>
</g>
<path opacity="0.3" d="M1648.52 3269.62V3320.44L1531.13 3252.72C1520.54 3245.82 1511.72 3236.52 1505.4 3225.57C1499.07 3214.63 1495.4 3202.35 1494.7 3189.72V2737.3L1616.7 2666.85C1619.22 2697.82 1621.95 2729.85 1624.58 2761.35L1538.8 2810.69V3164C1539.48 3176.64 1543.14 3188.94 1549.5 3199.89C1555.85 3210.84 1564.7 3220.13 1575.34 3227L1648.52 3269.62Z" fill="black"/>
<path d="M1538.8 3164.1C1539.52 3176.74 1543.2 3189.02 1549.55 3199.96C1555.9 3210.91 1564.73 3220.2 1575.34 3227.1L1854.83 3388.16C1930.43 3431.74 2053.06 3431.84 2128.76 3388.16L2496.24 3176.07C2571.94 3132.4 2571.94 3061.63 2496.24 3017.95L2216.54 2856.89C2205.96 2849.98 2197.15 2840.67 2190.82 2829.73C2184.49 2818.79 2180.82 2806.51 2180.1 2793.89V2440.48L1539.64 2810.69L1538.8 3164.1Z" fill="#08732B"/>
<path opacity="0.3" d="M1538.8 3164.1C1539.52 3176.74 1543.2 3189.02 1549.55 3199.96C1555.9 3210.91 1564.73 3220.2 1575.34 3227.1L1854.83 3388.16C1930.43 3431.74 2053.06 3431.84 2128.76 3388.16L2496.24 3176.07C2571.94 3132.4 2571.94 3061.63 2496.24 3017.95L2216.54 2856.89C2205.96 2849.98 2197.15 2840.67 2190.82 2829.73C2184.49 2818.79 2180.82 2806.51 2180.1 2793.89V2440.48L1539.64 2810.69L1538.8 3164.1Z" fill="black"/>
<path opacity="0.5" d="M2290.56 2900.04L2216.12 2857.1C2205.54 2850.19 2196.73 2840.88 2190.4 2829.94C2184.07 2819 2180.4 2806.72 2179.68 2794.1V2440.48L1539.22 2810.69V3164.1C1539.94 3176.74 1543.62 3189.02 1549.97 3199.96C1556.32 3210.91 1565.15 3220.2 1575.76 3227.1L1649.25 3269.1L2290.56 2900.04Z" fill="black"/>
<path d="M2552.52 3097.22V3148.25C2552.52 3176.91 2533.51 3205.37 2495.82 3227.31L2128.34 3439.3C2088.13 3460.76 2043.21 3471.91 1997.62 3471.74V3420.92C2043.21 3421.09 2088.13 3409.94 2128.34 3388.48L2495.82 3176.28C2533.51 3154.55 2552.52 3125.89 2552.52 3097.22Z" fill="#08732B"/>
<path opacity="0.5" d="M2552.52 3097.22V3148.25C2552.52 3176.91 2533.51 3205.37 2495.82 3227.31L2128.34 3439.3C2088.13 3460.76 2043.21 3471.91 1997.62 3471.74V3420.92C2043.21 3421.09 2088.13 3409.94 2128.34 3388.48L2495.82 3176.28C2533.51 3154.55 2552.52 3125.89 2552.52 3097.22Z" fill="black"/>
<path d="M509.853 3603.3C523.699 3609.98 538.922 3613.33 554.296 3613.05C569.669 3612.78 584.764 3608.9 598.363 3601.72L3076.23 2171.17C3089.52 2162.51 3100.58 2150.83 3108.51 2137.1C3116.45 2123.36 3121.03 2107.95 3121.9 2092.11V87.5586C3121.43 72.1494 3117.32 57.0702 3109.91 43.5501C3102.51 30.0299 3092.01 18.4512 3079.28 9.75778C3065.45 3.06287 3050.23 -0.274276 3034.87 0.0176271C3019.51 0.30953 3004.44 4.22224 2990.87 11.4377L513.003 1442.41C499.763 1451.13 488.771 1462.85 480.925 1476.63C473.079 1490.41 468.601 1505.84 467.855 1521.68V3525.92C468.323 3541.2 472.366 3556.16 479.66 3569.6C486.953 3583.03 497.294 3594.58 509.853 3603.3Z" fill="#08732B"/>
<path d="M598.678 3601.62L3076.55 2171.07C3089.85 2162.42 3100.92 2150.75 3108.86 2137.01C3116.8 2123.27 3121.37 2107.85 3122.22 2092.01V87.5584C3122.22 58.475 3101.75 46.6106 3076.55 61.2048L598.678 1491.75C585.386 1500.41 574.323 1512.09 566.388 1525.82C558.452 1539.56 553.867 1554.97 553.006 1570.81V3575.26C553.006 3604.35 573.48 3616.21 598.678 3601.62Z" fill="#08732B"/>
<path opacity="0.5" d="M598.678 3601.62L3076.55 2171.07C3089.85 2162.42 3100.92 2150.75 3108.86 2137.01C3116.8 2123.27 3121.37 2107.85 3122.22 2092.01V87.5584C3122.22 58.475 3101.75 46.6106 3076.55 61.2048L598.678 1491.75C585.386 1500.41 574.323 1512.09 566.388 1525.82C558.452 1539.56 553.867 1554.97 553.006 1570.81V3575.26C553.006 3604.35 573.48 3616.21 598.678 3601.62Z" fill="black"/>
<path d="M591.958 3653.69C578.965 3659.37 564.896 3662.15 550.721 3661.86C536.547 3661.57 522.604 3658.21 509.853 3652.01C497.266 3643.27 486.908 3631.7 479.613 3618.22C472.318 3604.74 468.291 3589.74 467.855 3574.42V3391.94L553.426 3441.5V3623.98C552.901 3650.54 569.805 3662.62 591.958 3653.69Z" fill="#08732B"/>
<path opacity="0.5" d="M591.958 3653.69C578.965 3659.37 564.896 3662.15 550.721 3661.86C536.547 3661.57 522.604 3658.21 509.853 3652.01C497.266 3643.27 486.908 3631.7 479.613 3618.22C472.318 3604.74 468.291 3589.74 467.855 3574.42V3391.94L553.426 3441.5V3623.98C552.901 3650.54 569.805 3662.62 591.958 3653.69Z" fill="black"/>
<path d="M552.901 3441.5V3623.98C552.901 3653.06 573.899 3664.82 598.573 3650.33L3076.44 2219.79C3089.67 2211.16 3100.7 2199.55 3108.63 2185.9C3116.56 2172.24 3121.18 2156.91 3122.11 2141.14V1957.82L552.901 3441.5Z" fill="#08732B"/>
<path opacity="0.3" d="M553.006 3441.08V3623.98C553.006 3653.06 574.004 3664.82 598.678 3650.33L3076.55 2219.79C3089.76 2211.15 3100.76 2199.54 3108.68 2185.88C3116.59 2172.22 3121.19 2156.9 3122.11 2141.14V1957.82L553.006 3441.08Z" fill="black"/>
<path d="M638.576 3212.09V1599.27C639.065 1589.77 641.792 1580.51 646.536 1572.27C651.28 1564.02 657.907 1557.01 665.875 1551.81L3008.72 198.748C3023.84 190.033 3036.12 197.068 3036.12 214.497V1828.16C3035.61 1837.67 3032.87 1846.92 3028.11 1855.17C3023.34 1863.41 3016.7 1870.42 3008.72 1875.61L665.98 3228.36C650.86 3237.08 638.576 3229.94 638.576 3212.09Z" fill="#08732B"/>
<path d="M638.576 3212.09V1599.27C639.065 1589.77 641.792 1580.51 646.536 1572.27C651.28 1564.02 657.907 1557.01 665.875 1551.81L3008.72 198.748C3023.84 190.033 3036.12 197.068 3036.12 214.497V1828.16C3035.61 1837.67 3032.87 1846.92 3028.11 1855.17C3023.34 1863.41 3016.7 1870.42 3008.72 1875.61L665.98 3228.36C650.86 3237.08 638.576 3229.94 638.576 3212.09Z" fill="#263238"/>
<path d="M1837.51 2757.78C1825.04 2765.89 1814.66 2776.83 1807.21 2789.71C1799.77 2802.59 1795.47 2817.05 1794.67 2831.9C1794.67 2859.2 1813.88 2870.33 1837.51 2856.68C1849.99 2848.56 1860.38 2837.6 1867.83 2824.7C1875.27 2811.8 1879.56 2797.32 1880.34 2782.45C1880.34 2755.15 1861.13 2744.13 1837.51 2757.78Z" fill="#08732B"/>
<path opacity="0.7" d="M566.445 1525.67C558.308 1539.34 553.657 1554.81 552.901 1570.71V3441.5L467.855 3391.94V1521.68C468.406 1505.73 473.033 1490.18 481.294 1476.53L566.445 1525.67Z" fill="black"/>
<path opacity="0.3" d="M3121.69 79.9991C3118.44 56.4804 3099.44 48.5008 3076.44 61.2052L598.573 1491.75C585.138 1500.16 574.049 1511.82 566.34 1525.67L480.664 1476.21C488.425 1462.37 499.547 1450.71 513.003 1442.3L2990.87 11.8578C3004.45 4.64134 3019.55 0.728446 3034.93 0.436568C3050.3 0.144691 3065.53 3.48205 3079.38 10.1779C3091.02 18.1087 3100.82 28.4464 3108.12 40.4921C3115.42 52.5377 3120.05 66.0104 3121.69 79.9991Z" fill="black"/>
<path d="M3255.35 326.736C3251.67 324.889 3247.56 324.079 3243.45 324.394C3239.34 324.708 3235.4 326.135 3232.04 328.521L894.027 1679.17C884.802 1685.27 877.143 1693.46 871.671 1703.07C866.199 1712.69 863.067 1723.45 862.529 1734.5V3337.45C862.202 3342.86 863.276 3348.27 865.649 3353.14C868.022 3358.01 871.612 3362.19 876.073 3365.27C881.218 3368.11 908.727 3384.07 916.916 3388.48C919.814 3389.95 923.051 3390.63 926.298 3390.45C929.544 3390.27 932.684 3389.22 935.395 3387.43L3272.89 2036.78C3282.11 2030.68 3289.77 2022.49 3295.24 2012.88C3300.71 2003.26 3303.85 1992.5 3304.38 1981.45V370.204C3304.85 366.132 3304.18 362.01 3302.44 358.301C3300.69 354.592 3297.95 351.442 3294.51 349.205C3289.26 345.74 3261.23 330.201 3255.35 326.736Z" fill="#08732B"/>
<path d="M934.87 1701.85L3272.99 351.725C3290.63 341.225 3304.49 349.835 3304.49 370.204V1981.45C3303.95 1992.5 3300.82 2003.26 3295.35 2012.87C3289.88 2022.49 3282.22 2030.68 3272.99 2036.78L934.87 3387.43C917.231 3397.93 903.372 3381.02 903.372 3360.65V1757.18C903.926 1746.14 907.065 1735.38 912.536 1725.76C918.007 1716.15 925.657 1707.96 934.87 1701.85Z" fill="#FAFAFA"/>
<path d="M3287.27 357.814C3293.46 357.814 3294.41 365.584 3294.41 370.204V1981.45C3293.84 1990.7 3291.13 1999.69 3286.48 2007.71C3281.83 2015.73 3275.38 2022.56 3267.64 2027.65L929.831 3378.29C928.262 3379.31 926.449 3379.89 924.581 3379.97C918.701 3379.97 914.081 3370.94 914.081 3360.65V1757.18C914.588 1747.93 917.22 1738.92 921.772 1730.86C926.324 1722.79 932.675 1715.88 940.33 1710.67L3278.24 360.754C3280.95 359.009 3284.06 357.996 3287.27 357.814ZM3287.27 347.315C3282.21 347.53 3277.29 349.049 3272.99 351.725L934.87 1701.85C925.657 1707.96 918.007 1716.15 912.536 1725.77C907.065 1735.38 903.926 1746.14 903.372 1757.18V3360.65C903.372 3376.82 912.402 3390.47 924.371 3390.47C928.078 3390.4 931.701 3389.35 934.87 3387.43L3272.89 2036.78C3282.11 2030.68 3289.77 2022.49 3295.24 2012.88C3300.71 2003.26 3303.85 1992.5 3304.38 1981.45V370.204C3304.38 355.714 3297.24 347.315 3286.75 347.315H3287.27Z" fill="#E0E0E0"/>
<path d="M875.444 3365.27C878.908 3367.06 903.792 3381.23 914.711 3387.53C910.79 3384.28 907.685 3380.16 905.643 3375.49C903.601 3370.82 902.68 3365.74 902.952 3360.65V1861.86L862.004 1837.92V3337.45C861.665 3342.85 862.724 3348.25 865.078 3353.12C867.432 3358 871.002 3362.18 875.444 3365.27Z" fill="#F0F0F0"/>
<path d="M3304.91 369.888C3304.91 349.73 3290.53 341.54 3273.41 351.724L934.87 1701.85C925.657 1707.96 918.007 1716.15 912.536 1725.76C907.065 1735.37 903.926 1746.14 903.372 1757.18V1862.17L3304.91 474.883V369.888Z" fill="#08732B"/>
<g opacity="0.4">
<path d="M3272.99 351.724L934.87 1701.74C925.487 1707.66 917.756 1715.86 912.401 1725.58L871.769 1701.95C877.114 1692.58 884.779 1684.73 894.027 1679.17L3232.04 328.521C3235.39 326.118 3239.33 324.673 3243.44 324.34C3247.54 324.007 3251.66 324.799 3255.35 326.631C3261.02 330.201 3287.59 345.215 3294.41 348.89C3290.88 347.58 3287.08 347.154 3283.35 347.648C3279.62 348.143 3276.06 349.542 3272.99 351.724Z" fill="white"/>
</g>
<path opacity="0.15" d="M862.004 1838.03V1733.98C862.436 1722.64 865.8 1711.6 871.769 1701.95L912.507 1725.47C906.623 1734.96 903.329 1745.82 902.952 1756.97V1861.96L862.004 1838.03Z" fill="black"/>
<path d="M2811.86 1578.58L1411.54 2387.04C1404.74 2391.46 1399.07 2397.42 1395 2404.45C1390.93 2411.47 1388.58 2419.36 1388.13 2427.46V2828.96C1388.58 2837.07 1390.93 2844.95 1395 2851.98C1399.07 2859 1404.74 2864.97 1411.54 2869.39L1452.39 2892.9C1459.65 2896.58 1467.67 2898.49 1475.8 2898.49C1483.94 2898.49 1491.96 2896.58 1499.22 2892.9L2899.32 2084.45C2906.13 2080.01 2911.8 2074.02 2915.87 2066.98C2919.93 2059.94 2922.28 2052.04 2922.73 2043.92V1642.32C2922.28 1634.21 2919.93 1626.32 2915.86 1619.3C2911.8 1612.28 2906.13 1606.31 2899.32 1601.89L2858.37 1578.37C2851.14 1574.76 2843.17 1572.9 2835.09 1572.94C2827.01 1572.97 2819.05 1574.91 2811.86 1578.58Z" fill="#08732B"/>
<path opacity="0.5" d="M2922.73 1638.75C2921.05 1626.67 2911.29 1622.26 2899.53 1629.09L1499.22 2437.54C1492.31 2441.83 1486.63 2447.84 1482.73 2454.97L1395.06 2404.37C1398.99 2397.34 1404.62 2391.42 1411.44 2387.15L2811.86 1578.69C2819.09 1575.01 2827.1 1573.09 2835.22 1573.09C2843.34 1573.09 2851.34 1575.01 2858.58 1578.69L2899.53 1602.21C2905.77 1606.3 2911.07 1611.67 2915.07 1617.97C2919.07 1624.27 2921.68 1631.36 2922.73 1638.75Z" fill="white"/>
<path d="M1495.23 2894.9C1488.37 2897.6 1481.02 2898.83 1473.66 2898.5C1466.3 2898.18 1459.08 2896.31 1452.49 2893.01L1411.54 2869.49C1404.75 2865.06 1399.09 2859.09 1395.02 2852.07C1390.95 2845.05 1388.59 2837.17 1388.13 2829.07V2427.57C1388.45 2419.37 1390.83 2411.39 1395.06 2404.37L1482.73 2454.97C1478.47 2461.91 1476.08 2469.83 1475.8 2477.97V2879.57C1475.8 2892.9 1484.2 2899.1 1495.23 2894.9Z" fill="#263238"/>
<path d="M1499.22 2437.54L2899.53 1629.09C2912.44 1621.63 2922.94 1627.62 2922.94 1642.53V2044.13C2922.49 2052.25 2920.14 2060.15 2916.08 2067.19C2912.01 2074.23 2906.34 2080.22 2899.53 2084.66L1499.43 2893.11C1486.51 2900.57 1476.01 2894.48 1476.01 2879.57V2478.07C1476.43 2469.97 1478.75 2462.08 1482.78 2455.04C1486.81 2448 1492.44 2442.01 1499.22 2437.54Z" fill="#08732B"/>
<path d="M2440.6 1792.98L1411.65 2387.15C1404.83 2391.42 1399.2 2397.34 1395.27 2404.37L1482.94 2454.97C1486.84 2447.84 1492.52 2441.83 1499.43 2437.54L2528.37 1843.48L2440.6 1792.98Z" fill="#455A64"/>
<path d="M2528.16 1843.48L1499.22 2437.54C1492.4 2441.98 1486.73 2447.97 1482.67 2455.01C1478.6 2462.05 1476.25 2469.95 1475.8 2478.07V2879.46C1475.8 2894.37 1486.3 2900.46 1499.22 2893.01L2528.16 2298.95V1843.48Z" fill="#37474F"/>
<path d="M1736.5 2388.62L2267.46 2082.14C2289.4 2069.43 2307.25 2078.46 2307.25 2102.3C2306.27 2115.68 2302.15 2128.65 2295.21 2140.14C2288.28 2151.63 2278.74 2161.33 2267.35 2168.44L1736.5 2475.03C1714.56 2487.73 1696.6 2478.7 1696.6 2454.87C1697.6 2441.47 1701.72 2428.49 1708.65 2416.98C1715.58 2405.48 1725.12 2395.76 1736.5 2388.62Z" fill="#08732B"/>
<path d="M1845.28 2490.15C1845.38 2490.03 1845.5 2489.94 1845.63 2489.88C1845.77 2489.82 1845.92 2489.79 1846.06 2489.79C1846.21 2489.79 1846.36 2489.82 1846.5 2489.88C1846.63 2489.94 1846.75 2490.03 1846.85 2490.15C1847.32 2490.86 1847.54 2491.71 1847.48 2492.56V2552.3C1847.49 2558.07 1847 2563.83 1846.01 2569.52C1845.14 2574.72 1843.66 2579.79 1841.6 2584.64C1839.72 2589.08 1837.25 2593.25 1834.25 2597.03C1831.3 2600.54 1827.74 2603.49 1823.75 2605.74C1820.63 2607.78 1816.98 2608.87 1813.25 2608.89C1811.83 2608.78 1810.44 2608.38 1809.18 2607.71C1807.91 2607.04 1806.8 2606.12 1805.9 2605.01C1803.6 2601.92 1802.09 2598.32 1801.49 2594.51C1800.49 2589.43 1800.03 2584.25 1800.13 2579.08V2519.23C1800.13 2518.18 1800.34 2517.14 1800.76 2516.18C1801.02 2515.32 1801.58 2514.57 1802.33 2514.08L1808.95 2510.2C1809.16 2510 1809.44 2509.89 1809.74 2509.89C1810.03 2509.89 1810.31 2510 1810.52 2510.2C1811.01 2510.91 1811.23 2511.76 1811.15 2512.61V2571.62C1811.07 2574.87 1811.39 2578.11 1812.1 2581.28C1812.39 2583.31 1813.26 2585.21 1814.62 2586.74C1815.09 2587.3 1815.69 2587.75 1816.36 2588.04C1817.04 2588.33 1817.77 2588.46 1818.5 2588.42C1820.3 2588.3 1822.03 2587.72 1823.54 2586.74C1825.41 2585.62 1827.11 2584.25 1828.58 2582.65C1830.22 2580.76 1831.57 2578.63 1832.57 2576.35C1833.76 2573.65 1834.64 2570.83 1835.2 2567.95C1835.81 2564.48 1836.09 2560.97 1836.04 2557.45V2498.33C1836.07 2497.28 1836.32 2496.24 1836.77 2495.29C1837.03 2494.42 1837.59 2493.68 1838.35 2493.19L1845.28 2490.15Z" fill="#FAFAFA"/>
<path d="M1886.43 2546.63C1886.49 2545.86 1886.31 2545.09 1885.91 2544.43C1885.66 2544.15 1885.35 2543.94 1885 2543.82C1884.65 2543.69 1884.28 2543.65 1883.91 2543.69C1882.63 2543.52 1881.32 2543.52 1880.03 2543.69L1873.94 2544.85C1871.98 2545.34 1869.92 2545.34 1867.96 2544.85C1866.41 2544.35 1865.08 2543.35 1864.18 2542.01C1863.15 2540.31 1862.47 2538.42 1862.18 2536.45C1861.16 2530.82 1861.16 2525.06 1862.18 2519.44C1862.97 2516.21 1864.1 2513.08 1865.54 2510.09C1866.98 2507.11 1868.74 2504.29 1870.79 2501.69C1872.78 2499.22 1875.2 2497.12 1877.93 2495.5C1880.14 2494.15 1882.61 2493.3 1885.17 2492.98C1887.04 2492.79 1888.91 2493.19 1890.53 2494.14C1892.07 2495.07 1893.28 2496.47 1893.99 2498.13C1894.84 2500.08 1895.3 2502.19 1895.36 2504.32C1895.47 2505.38 1895.25 2506.44 1894.73 2507.36C1894.47 2508.23 1893.91 2508.97 1893.15 2509.46L1886.85 2513.14C1886.57 2513.31 1886.24 2513.39 1885.91 2513.39C1885.58 2513.39 1885.25 2513.31 1884.96 2513.14L1883.6 2512.09C1883.06 2511.66 1882.4 2511.41 1881.71 2511.35C1880.36 2511.5 1879.06 2511.97 1877.93 2512.72C1876.28 2513.71 1874.82 2514.99 1873.63 2516.5C1872.35 2518.15 1871.69 2520.19 1871.74 2522.27C1871.59 2523.07 1871.59 2523.89 1871.74 2524.69C1871.94 2524.99 1872.2 2525.23 1872.51 2525.41C1872.82 2525.6 1873.16 2525.71 1873.52 2525.74C1874.67 2525.93 1875.84 2525.93 1876.99 2525.74L1882.86 2524.69C1887.8 2523.74 1891.16 2524.69 1893.36 2527.42C1895.68 2531.31 1896.74 2535.82 1896.41 2540.33C1896.38 2543.45 1895.96 2546.56 1895.15 2549.57C1894.32 2552.85 1893.12 2556.02 1891.58 2559.02C1890.04 2562.13 1888.1 2565.02 1885.8 2567.63C1883.63 2570.18 1881.04 2572.35 1878.14 2574.04C1875.83 2575.51 1873.2 2576.41 1870.48 2576.66C1868.5 2576.73 1866.56 2576.18 1864.91 2575.09C1863.29 2573.98 1862.04 2572.4 1861.34 2570.57C1860.49 2568.58 1860.06 2566.44 1860.08 2564.27C1859.98 2563.18 1860.2 2562.09 1860.71 2561.12C1860.97 2560.26 1861.53 2559.51 1862.29 2559.02L1868.59 2555.35C1869.43 2555.35 1870.06 2554.82 1870.48 2555.35L1871.84 2556.82C1872.12 2557.13 1872.46 2557.38 1872.84 2557.56C1873.22 2557.74 1873.63 2557.85 1874.05 2557.87C1875.52 2557.87 1876.96 2557.39 1878.14 2556.5C1880.04 2555.43 1881.74 2554.04 1883.18 2552.41C1883.89 2551.54 1884.49 2550.59 1884.96 2549.57C1885.71 2548.74 1886.21 2547.73 1886.43 2546.63Z" fill="#FAFAFA"/>
<path d="M1907.85 2518.18C1907.83 2512.72 1908.29 2507.28 1909.22 2501.9C1910.1 2496.85 1911.47 2491.89 1913.31 2487.1C1914.86 2482.81 1916.98 2478.75 1919.61 2475.03C1921.81 2471.83 1924.68 2469.14 1928.01 2467.15C1930.45 2465.52 1933.42 2464.88 1936.31 2465.37C1938.87 2465.96 1941.12 2467.5 1942.61 2469.67C1944.58 2472.52 1945.97 2475.73 1946.7 2479.12C1947.71 2483.53 1948.2 2488.04 1948.17 2492.56V2499.07C1948.2 2500.17 1947.95 2501.25 1947.44 2502.22C1947.18 2503.09 1946.62 2503.83 1945.86 2504.32L1918.56 2520.17C1918.5 2522.02 1918.75 2523.87 1919.3 2525.63C1919.7 2526.82 1920.43 2527.88 1921.4 2528.68C1922.26 2529.36 1923.35 2529.7 1924.44 2529.62C1925.71 2529.47 1926.93 2529.04 1928.01 2528.36C1929.6 2527.5 1931.02 2526.36 1932.21 2525C1933.29 2523.79 1934.2 2522.45 1934.94 2521.01C1935.39 2520.18 1935.88 2519.38 1936.41 2518.6C1936.86 2518.06 1937.39 2517.6 1937.99 2517.23L1944.5 2513.45C1944.72 2513.28 1945 2513.18 1945.28 2513.18C1945.57 2513.18 1945.85 2513.28 1946.07 2513.45C1946.35 2513.79 1946.55 2514.17 1946.66 2514.59C1946.76 2515.01 1946.78 2515.45 1946.7 2515.87C1946.59 2517.92 1946.16 2519.93 1945.44 2521.85C1944.54 2524.77 1943.34 2527.58 1941.87 2530.25C1940.23 2533.33 1938.26 2536.21 1935.99 2538.86C1933.73 2541.57 1931.04 2543.88 1928.01 2545.69C1925.53 2547.31 1922.56 2548.02 1919.61 2547.68C1917.03 2547.06 1914.78 2545.49 1913.31 2543.27C1911.25 2540.09 1909.85 2536.52 1909.22 2532.77C1908.26 2527.97 1907.81 2523.08 1907.85 2518.18ZM1928.01 2484.69C1926.4 2485.56 1925 2486.77 1923.92 2488.26C1922.75 2489.73 1921.8 2491.35 1921.08 2493.09C1920.35 2494.82 1919.75 2496.61 1919.3 2498.44C1918.93 2500.1 1918.68 2501.78 1918.56 2503.48L1937.04 2492.98C1936.93 2491.53 1936.72 2490.09 1936.41 2488.68C1936.25 2487.41 1935.74 2486.21 1934.94 2485.21C1934.63 2484.76 1934.22 2484.37 1933.75 2484.08C1933.28 2483.8 1932.76 2483.61 1932.21 2483.53C1930.72 2483.4 1929.23 2483.81 1928.01 2484.69Z" fill="#FAFAFA"/>
<path d="M1981.14 2455.39C1977.96 2457.21 1975.45 2460.01 1974 2463.37C1972.37 2467.8 1971.62 2472.51 1971.8 2477.23V2515.13C1971.81 2516.22 1971.6 2517.29 1971.17 2518.28C1970.91 2519.15 1970.35 2519.89 1969.59 2520.38L1963.4 2523.95C1963.3 2524.07 1963.18 2524.15 1963.04 2524.22C1962.9 2524.28 1962.76 2524.31 1962.61 2524.31C1962.46 2524.31 1962.31 2524.28 1962.18 2524.22C1962.04 2524.15 1961.92 2524.07 1961.82 2523.95C1961.35 2523.24 1961.13 2522.39 1961.19 2521.54V2453.61C1961.2 2452.53 1961.41 2451.46 1961.82 2450.46C1962.11 2449.61 1962.66 2448.88 1963.4 2448.36L1969.59 2444.79C1969.8 2444.59 1970.09 2444.48 1970.38 2444.48C1970.67 2444.48 1970.95 2444.59 1971.17 2444.79C1971.65 2445.45 1971.88 2446.28 1971.8 2447.1V2450.46C1973.05 2447.64 1974.6 2444.97 1976.41 2442.48C1978.08 2440.18 1980.23 2438.28 1982.71 2436.91L1986.49 2434.71C1986.69 2434.52 1986.95 2434.41 1987.23 2434.41C1987.5 2434.41 1987.77 2434.52 1987.96 2434.71C1988.47 2435.41 1988.73 2436.26 1988.7 2437.12V2446.68C1988.68 2447.77 1988.43 2448.84 1987.96 2449.83C1987.7 2450.66 1987.19 2451.39 1986.49 2451.93L1981.14 2455.39Z" fill="#FAFAFA"/>
<path d="M2059.47 2450.35C2059.56 2450.24 2059.69 2450.15 2059.82 2450.09C2059.96 2450.03 2060.1 2450 2060.25 2450C2060.4 2450 2060.55 2450.03 2060.68 2450.09C2060.82 2450.15 2060.94 2450.24 2061.04 2450.35C2061.51 2451.07 2061.73 2451.92 2061.67 2452.77V2463.27C2061.66 2464.35 2061.45 2465.42 2061.04 2466.42C2060.68 2467.2 2060.14 2467.88 2059.47 2468.41L2023.56 2489.41C2023.34 2489.61 2023.06 2489.72 2022.77 2489.72C2022.48 2489.72 2022.2 2489.61 2021.98 2489.41C2021.51 2488.74 2021.29 2487.92 2021.35 2487.1V2392.61C2021.36 2391.53 2021.57 2390.46 2021.98 2389.46C2022.28 2388.64 2022.83 2387.94 2023.56 2387.46L2030.17 2383.58C2030.39 2383.38 2030.67 2383.27 2030.96 2383.27C2031.25 2383.27 2031.53 2383.38 2031.75 2383.58C2032.22 2384.25 2032.44 2385.07 2032.38 2385.89V2465.79L2059.47 2450.35Z" fill="#FAFAFA"/>
<path d="M2091.7 2372.66C2094.06 2371.02 2096.92 2370.24 2099.78 2370.45C2102.24 2370.65 2104.53 2371.77 2106.19 2373.6C2108.14 2375.85 2109.58 2378.5 2110.39 2381.37C2111.51 2385.09 2112.14 2388.94 2112.28 2392.82C2112.28 2393.66 2112.28 2394.81 2112.28 2396.18V2404.26C2112.28 2405.52 2112.28 2406.67 2112.28 2407.62C2112.07 2412.18 2111.44 2416.72 2110.39 2421.16C2109.42 2425.5 2108.01 2429.72 2106.19 2433.76C2104.52 2437.53 2102.37 2441.06 2099.78 2444.26C2097.57 2447.17 2094.83 2449.62 2091.7 2451.51C2089.27 2453.09 2086.4 2453.86 2083.51 2453.71C2081.08 2453.5 2078.83 2452.38 2077.21 2450.56C2075.2 2448.4 2073.75 2445.76 2073.01 2442.9C2071.89 2439.18 2071.25 2435.33 2071.12 2431.45C2071.12 2430.61 2071.12 2429.56 2071.12 2428.2V2420.11C2071.12 2418.75 2071.12 2417.59 2071.12 2416.75C2071.24 2412.16 2071.84 2407.58 2072.9 2403.11C2073.93 2398.74 2075.37 2394.49 2077.21 2390.4C2078.88 2386.66 2080.99 2383.13 2083.51 2379.9C2085.74 2376.97 2088.52 2374.51 2091.7 2372.66ZM2101.57 2399.75C2101.56 2397.42 2101.17 2395.12 2100.41 2392.92C2100.02 2391.58 2099.21 2390.4 2098.1 2389.56C2097.21 2388.96 2096.13 2388.7 2095.06 2388.83C2093.86 2389.05 2092.72 2389.52 2091.7 2390.19C2090.46 2390.87 2089.33 2391.72 2088.34 2392.71C2087.13 2393.96 2086.11 2395.38 2085.29 2396.91C2084.24 2398.82 2083.46 2400.87 2082.98 2403C2082.3 2405.68 2081.87 2408.42 2081.72 2411.19C2081.72 2412.03 2081.72 2412.97 2081.72 2414.13V2421.58C2081.72 2422.74 2081.72 2423.68 2081.72 2424.31C2081.82 2426.64 2082.25 2428.93 2082.98 2431.14C2083.37 2432.48 2084.18 2433.66 2085.29 2434.5C2085.73 2434.81 2086.23 2435.02 2086.75 2435.13C2087.27 2435.24 2087.82 2435.24 2088.34 2435.13C2089.53 2434.93 2090.67 2434.5 2091.7 2433.87C2092.92 2433.17 2094.04 2432.32 2095.06 2431.35C2096.23 2430.07 2097.25 2428.66 2098.1 2427.15C2099.11 2425.22 2099.89 2423.17 2100.41 2421.06C2101.1 2418.38 2101.49 2415.63 2101.57 2412.87C2101.63 2411.89 2101.63 2410.91 2101.57 2409.93V2402.58C2101.63 2401.64 2101.63 2400.69 2101.57 2399.75Z" fill="#FAFAFA"/>
<path d="M2144.41 2434.08C2145.75 2433.26 2146.95 2432.23 2147.98 2431.03C2149.24 2429.55 2150.33 2427.93 2151.23 2426.2C2152.27 2424.09 2153.08 2421.88 2153.65 2419.59C2154.29 2417.01 2154.61 2414.37 2154.59 2411.71V2406.36C2154.59 2407.41 2153.54 2408.67 2152.81 2410.14C2152.09 2411.68 2151.24 2413.15 2150.29 2414.55C2149.19 2416.03 2148 2417.43 2146.72 2418.75C2145.4 2420.13 2143.88 2421.3 2142.2 2422.21C2141.12 2422.95 2139.91 2423.46 2138.62 2423.71C2137.34 2423.97 2136.02 2423.96 2134.75 2423.68C2132.41 2422.95 2130.41 2421.43 2129.08 2419.38C2127.37 2416.67 2126.12 2413.69 2125.4 2410.56C2124.51 2406.59 2124.01 2402.55 2123.93 2398.49C2123.93 2397.12 2123.93 2395.44 2123.93 2393.45C2123.93 2391.45 2123.93 2389.77 2123.93 2388.3C2124.06 2383.68 2124.55 2379.09 2125.4 2374.55C2126.26 2370.08 2127.49 2365.69 2129.08 2361.42C2130.56 2357.72 2132.46 2354.2 2134.75 2350.92C2136.68 2348.03 2139.23 2345.59 2142.2 2343.78C2143.6 2342.94 2145.12 2342.34 2146.72 2342C2147.9 2341.78 2149.11 2341.78 2150.29 2342C2151.22 2342.26 2152.08 2342.73 2152.81 2343.36C2153.48 2343.88 2154.08 2344.48 2154.59 2345.15V2341.79C2154.6 2340.71 2154.81 2339.64 2155.22 2338.64C2155.51 2337.82 2156.07 2337.12 2156.8 2336.64L2162.99 2332.97C2163.2 2332.77 2163.49 2332.66 2163.78 2332.66C2164.07 2332.66 2164.35 2332.77 2164.57 2332.97C2165.07 2333.67 2165.33 2334.52 2165.3 2335.38V2403.63C2165.58 2413.85 2163.69 2424.02 2159.74 2433.45C2156.64 2440.87 2151.27 2447.11 2144.41 2451.3C2142.06 2452.75 2139.39 2453.58 2136.64 2453.71C2134.46 2453.84 2132.29 2453.29 2130.44 2452.14C2128.67 2450.81 2127.23 2449.08 2126.24 2447.1C2125.22 2444.7 2124.65 2442.14 2124.56 2439.54C2124.46 2438.45 2124.68 2437.36 2125.19 2436.39C2125.45 2435.52 2126.01 2434.78 2126.77 2434.29L2132.33 2431.14C2132.46 2431 2132.61 2430.89 2132.79 2430.82C2132.96 2430.74 2133.14 2430.71 2133.33 2430.71C2133.52 2430.71 2133.7 2430.74 2133.87 2430.82C2134.04 2430.89 2134.2 2431 2134.33 2431.14C2134.84 2431.68 2135.3 2432.28 2135.69 2432.92C2136.33 2434.05 2137.39 2434.88 2138.63 2435.23C2139.89 2436.18 2141.78 2435.13 2144.41 2434.08ZM2134.54 2383.16C2134.54 2385.96 2134.54 2388.69 2134.54 2391.35C2134.24 2395.54 2135.43 2399.7 2137.9 2403.11C2138.83 2403.91 2140.02 2404.35 2141.26 2404.35C2142.49 2404.35 2143.68 2403.91 2144.62 2403.11C2147.66 2401.12 2150.04 2398.27 2151.44 2394.92C2153.35 2390.54 2154.42 2385.83 2154.59 2381.06C2154.59 2379.48 2154.59 2377.59 2154.59 2375.39C2154.59 2373.18 2154.59 2371.29 2154.59 2369.93C2154.8 2366.17 2153.69 2362.45 2151.44 2359.43C2150.51 2358.57 2149.29 2358.1 2148.03 2358.1C2146.76 2358.1 2145.55 2358.57 2144.62 2359.43C2141.63 2361.4 2139.29 2364.21 2137.9 2367.51C2135.74 2372.45 2134.6 2377.77 2134.54 2383.16Z" fill="#FAFAFA"/>
<path d="M2189.76 2289.92C2189.97 2289.75 2190.23 2289.66 2190.5 2289.66C2190.77 2289.66 2191.03 2289.75 2191.23 2289.92C2191.78 2290.6 2192.05 2291.47 2191.97 2292.34V2303.78C2191.98 2304.87 2191.72 2305.95 2191.23 2306.93C2190.94 2307.72 2190.43 2308.41 2189.76 2308.93L2182.73 2313.02C2182.63 2313.13 2182.51 2313.22 2182.37 2313.28C2182.24 2313.34 2182.09 2313.38 2181.94 2313.38C2181.79 2313.38 2181.65 2313.34 2181.51 2313.28C2181.37 2313.22 2181.25 2313.13 2181.15 2313.02C2180.88 2312.71 2180.67 2312.34 2180.55 2311.94C2180.42 2311.54 2180.38 2311.12 2180.42 2310.71V2299.27C2180.41 2298.17 2180.66 2297.09 2181.15 2296.12C2181.45 2295.3 2182 2294.6 2182.73 2294.12L2189.76 2289.92ZM2191.55 2388.51C2191.55 2389.56 2191.34 2390.6 2190.92 2391.56C2190.58 2392.38 2190.04 2393.1 2189.34 2393.66L2183.04 2397.23C2182.96 2397.34 2182.84 2397.42 2182.72 2397.48C2182.59 2397.55 2182.45 2397.58 2182.31 2397.58C2182.17 2397.58 2182.03 2397.55 2181.9 2397.48C2181.77 2397.42 2181.66 2397.34 2181.57 2397.23C2181.02 2396.55 2180.76 2395.68 2180.84 2394.81V2326.88C2180.83 2325.79 2181.08 2324.71 2181.57 2323.73C2181.87 2322.91 2182.38 2322.19 2183.04 2321.63L2189.34 2318.06C2189.56 2317.86 2189.84 2317.75 2190.13 2317.75C2190.42 2317.75 2190.7 2317.86 2190.92 2318.06C2191.39 2318.73 2191.61 2319.55 2191.55 2320.37V2388.51Z" fill="#FAFAFA"/>
<path d="M2246.78 2356.49C2246.77 2357.57 2246.56 2358.64 2246.15 2359.64C2245.85 2360.46 2245.3 2361.16 2244.57 2361.63L2238.27 2365.31C2238.07 2365.5 2237.81 2365.61 2237.54 2365.61C2237.26 2365.61 2237 2365.5 2236.8 2365.31C2236.25 2364.63 2235.99 2363.76 2236.07 2362.89V2325.93C2236.39 2321.57 2235.59 2317.2 2233.76 2313.23C2232.29 2310.61 2229.98 2310.19 2226.72 2312.08C2223.48 2314.26 2221.07 2317.48 2219.9 2321.21C2218.14 2326.16 2217.29 2331.39 2217.38 2336.64V2373.71C2217.37 2374.79 2217.16 2375.86 2216.75 2376.86C2216.49 2377.72 2215.93 2378.47 2215.17 2378.96L2208.98 2382.53C2208.88 2382.64 2208.76 2382.73 2208.62 2382.79C2208.49 2382.85 2208.34 2382.88 2208.19 2382.88C2208.04 2382.88 2207.89 2382.85 2207.76 2382.79C2207.62 2382.73 2207.5 2382.64 2207.4 2382.53C2206.92 2381.86 2206.69 2381.04 2206.77 2380.22V2312.29C2206.76 2311.2 2206.97 2310.13 2207.4 2309.14C2207.66 2308.27 2208.22 2307.52 2208.98 2307.04L2215.17 2303.47C2215.27 2303.35 2215.39 2303.26 2215.53 2303.2C2215.66 2303.14 2215.81 2303.11 2215.96 2303.11C2216.11 2303.11 2216.26 2303.14 2216.39 2303.2C2216.53 2303.26 2216.65 2303.35 2216.75 2303.47C2217.22 2304.18 2217.44 2305.03 2217.38 2305.88V2309.14C2218.76 2305.94 2220.45 2302.88 2222.42 2300C2224.15 2297.35 2226.49 2295.15 2229.24 2293.6C2231.63 2291.85 2234.6 2291.1 2237.54 2291.5C2238.7 2291.79 2239.79 2292.32 2240.73 2293.07C2241.67 2293.81 2242.44 2294.74 2243 2295.8C2244.52 2298.64 2245.52 2301.74 2245.94 2304.94C2246.5 2309.11 2246.78 2313.32 2246.78 2317.53V2356.49Z" fill="#FAFAFA"/>
<path d="M2776.37 2050.85L2674.42 2109.65L2690.27 1966.64C2677.99 1960.13 2670.22 1944.28 2670.22 1921.5C2670.22 1880.86 2695 1833.72 2725.45 1816.5C2755.89 1799.28 2780.57 1817.55 2780.57 1858.5C2779.94 1882.59 2773.06 1906.11 2760.62 1926.75L2776.37 2050.85Z" fill="#455A64"/>
<path d="M2776.47 2050.85L2686.7 1999.09L2674.42 2109.75L2776.47 2050.85Z" fill="#37474F"/>
<path d="M2725.24 1816.19C2703.03 1831.19 2686.48 1853.17 2678.2 1878.66L2760.41 1926.12C2772.85 1905.48 2779.73 1881.96 2780.36 1857.87C2780.57 1817.24 2755.89 1798.65 2725.24 1816.19Z" fill="#37474F"/>
<path d="M2229.66 1340.04C2194.7 1319.88 2146.51 1322.71 2093.17 1353.48C1986.7 1415 1900.4 1564.41 1900.4 1687.36C1900.4 1749.1 1922.24 1792.35 1957.31 1812.3L2025.24 1851.78C2060.1 1871.94 2108.29 1869 2161.73 1838.24C2268.19 1776.81 2354.5 1627.3 2354.5 1504.35C2354.5 1442.93 2332.87 1399.36 2298.01 1379.72" fill="#08732B"/>
<path d="M2161.63 1393.06C2055.16 1454.59 1968.86 1604.1 1968.86 1726.94C1968.86 1849.78 2055.16 1899.76 2161.63 1838.24C2268.09 1776.71 2354.5 1627.3 2354.39 1504.35C2354.29 1381.4 2267.98 1331.64 2161.63 1393.06Z" fill="#08732B"/>
<path d="M2267.98 1665.83V1679.9C2242.48 1725.43 2205.9 1763.78 2161.63 1791.41C2120.15 1815.24 2082.67 1817.87 2055.16 1802.64V1773.66C2056.57 1743.51 2065.18 1714.14 2080.27 1688C2095.35 1661.86 2116.48 1639.72 2141.89 1623.42L2169.92 1607.25C2194.7 1592.97 2218.85 1591.08 2237.75 1602.1C2256.65 1613.13 2267.98 1636.33 2267.98 1665.83Z" fill="#08732B"/>
<path opacity="0.4" d="M2229.66 1340.04L2297.91 1379.72C2263.05 1359.46 2214.86 1362.3 2161.42 1393.06C2091.7 1433.38 2030.59 1511.39 1996.78 1594.96L1928.43 1555.38C1962.35 1471.38 2022.93 1393.79 2093.06 1353.48C2146.61 1322.82 2194.8 1319.88 2229.66 1340.04Z" fill="white"/>
<path opacity="0.2" d="M2022.82 1850.2L1957.41 1812.3C1922.34 1792.35 1900.5 1749.31 1900.5 1687.36L1968.86 1727.05C1969.28 1786.89 1989.43 1829.52 2022.82 1850.2Z" fill="black"/>
<path opacity="0.1" d="M1928.64 1555.38L1996.99 1594.96C1979.48 1636.8 1970.07 1681.59 1969.28 1726.94L1900.92 1687.25C1901.77 1641.94 1911.17 1597.2 1928.64 1555.38Z" fill="black"/>
<path d="M2137.27 1600.63C2130.75 1600.7 2124.34 1599.04 2118.68 1595.8C2111.87 1591.26 2106.4 1584.96 2102.87 1577.57C2099.34 1570.17 2097.88 1561.96 2098.63 1553.81C2099.52 1534.68 2104.98 1516.04 2114.55 1499.45C2124.12 1482.87 2137.53 1468.81 2153.65 1458.47C2160.12 1453.3 2168 1450.21 2176.26 1449.59C2184.53 1448.98 2192.78 1450.87 2199.95 1455.02C2207.12 1459.17 2212.87 1465.39 2216.45 1472.86C2220.02 1480.33 2221.26 1488.71 2220 1496.9C2219.09 1516.02 2213.63 1534.66 2204.06 1551.24C2194.49 1567.82 2181.09 1581.88 2164.99 1592.23C2156.65 1597.44 2147.09 1600.33 2137.27 1600.63Z" fill="white"/>
<path d="M2237.75 1602C2218.85 1590.97 2194.7 1592.86 2169.92 1607.14L2141.89 1623.31C2116.47 1639.62 2095.33 1661.78 2080.24 1687.94C2065.15 1714.1 2056.55 1743.5 2055.16 1773.66V1802.75C2082.67 1817.97 2120.15 1815.35 2161.63 1791.51C2205.9 1763.89 2242.48 1725.54 2267.98 1680.01V1665.94C2267.98 1636.33 2257.07 1613.13 2237.75 1602Z" fill="white"/>
<path d="M4396.22 3418.4C4396.22 3418.4 4410.19 3295.77 4471.19 3200.54C4532.19 3105.31 4615.97 3045.99 4694.2 3039.79C4772.42 3033.6 4835.62 3105.62 4751.94 3155.29C4668.26 3204.95 4519.59 3255.13 4451.13 3439.93L4396.22 3418.4Z" fill="#08732B"/>
<path opacity="0.1" d="M4396.22 3418.4C4396.22 3418.4 4410.19 3295.77 4471.19 3200.54C4532.19 3105.31 4615.97 3045.99 4694.2 3039.79C4772.42 3033.6 4835.62 3105.62 4751.94 3155.29C4668.26 3204.95 4519.59 3255.13 4451.13 3439.93L4396.22 3418.4Z" fill="black"/>
<path d="M4419.22 3386.48H4418.38C4417.35 3386.06 4416.53 3385.25 4416.09 3384.23C4415.66 3383.21 4415.65 3382.05 4416.07 3381.02C4498.59 3177.86 4655.66 3092.92 4727.27 3076.54C4727.81 3076.42 4728.36 3076.4 4728.91 3076.49C4729.45 3076.58 4729.97 3076.78 4730.44 3077.07C4730.91 3077.36 4731.31 3077.74 4731.64 3078.19C4731.96 3078.64 4732.18 3079.15 4732.31 3079.69C4732.43 3080.23 4732.45 3080.78 4732.36 3081.33C4732.27 3081.87 4732.07 3082.39 4731.78 3082.86C4731.48 3083.33 4731.1 3083.74 4730.65 3084.06C4730.2 3084.38 4729.7 3084.61 4729.16 3084.73C4659.02 3100.9 4505 3184.26 4423.83 3384.28C4423.43 3385.12 4422.75 3385.79 4421.91 3386.19C4421.07 3386.59 4420.12 3386.69 4419.22 3386.48Z" fill="white"/>
<path d="M4836.88 3388.9C4829.85 3404.86 4812.42 3413.26 4796.25 3419.77C4780.08 3426.28 4762.44 3433.31 4753.62 3448.43C4735.98 3478.88 4764.96 3521.93 4746.06 3551.43C4741.61 3557.37 4736.01 3562.35 4729.58 3566.06C4723.16 3569.78 4716.05 3572.16 4708.68 3573.06C4696.61 3575.26 4684.33 3575.26 4672.15 3576.31C4666.31 3576.24 4660.49 3575.78 4654.72 3574.95C4637.75 3571.16 4620.01 3573.04 4604.22 3580.3C4579.96 3593.95 4572.72 3624.51 4557.81 3648.13C4548.7 3662.04 4536.69 3673.82 4522.61 3682.66C4508.54 3691.5 4492.71 3697.2 4476.23 3699.37C4465.73 3700.73 4444.73 3702.73 4434.23 3696.53C4433.41 3696.13 4432.63 3695.64 4431.92 3695.06C4430.34 3693.38 4428.45 3691.18 4427.61 3690.02C4427.56 3689.78 4427.56 3689.53 4427.61 3689.29C4423.31 3673.43 4430.34 3657.05 4430.66 3640.67V3637.73C4429.92 3618.73 4429.4 3599.83 4428.98 3580.93C4428.07 3545.93 4427.72 3510.94 4427.93 3475.94C4427.93 3453.26 4425.41 3428.48 4435.07 3407.17C4445.57 3383.65 4472.03 3383.12 4482 3360.13C4485.99 3350.89 4488.09 3341.13 4491.98 3331.78C4497.98 3318.2 4507.6 3306.52 4519.78 3298.02C4531.96 3289.52 4546.24 3284.53 4561.06 3283.59C4607.16 3281.28 4648.42 3318.55 4694.51 3315.09C4706.37 3314.14 4718.03 3310.47 4729.79 3308.37C4767.06 3301.33 4810.21 3311.94 4831.21 3343.54C4835.82 3350.05 4838.75 3357.59 4839.74 3365.51C4840.73 3373.42 4839.75 3381.46 4836.88 3388.9Z" fill="#08732B"/>
<path d="M4423 3616.53C4422 3616.23 4421.16 3615.56 4420.65 3614.66C4420.14 3613.76 4420 3612.7 4420.27 3611.7C4483.89 3372.94 4735.25 3338.71 4794.36 3342.7C4794.88 3342.73 4795.39 3342.86 4795.86 3343.08C4796.33 3343.31 4796.74 3343.63 4797.09 3344.02C4797.43 3344.41 4797.69 3344.87 4797.85 3345.37C4798.02 3345.86 4798.08 3346.38 4798.04 3346.9C4797.93 3347.92 4797.43 3348.86 4796.65 3349.53C4795.87 3350.19 4794.86 3350.53 4793.84 3350.47C4736.19 3346.38 4490.09 3380.08 4427.82 3613.8C4427.53 3614.79 4426.86 3615.63 4425.96 3616.14C4425.06 3616.65 4424 3616.79 4423 3616.53Z" fill="white"/>
<path d="M4702.59 3495.57C4701.8 3495.46 4701.06 3495.09 4700.49 3494.52C4677.26 3474.38 4649.86 3459.62 4620.26 3451.29C4590.66 3442.96 4559.58 3441.27 4529.25 3446.33C4528.23 3446.42 4527.21 3446.13 4526.39 3445.51C4525.57 3444.89 4525.02 3443.98 4524.84 3442.97C4524.69 3441.94 4524.94 3440.89 4525.55 3440.05C4526.16 3439.21 4527.07 3438.64 4528.09 3438.46C4559.73 3433.19 4592.14 3434.99 4622.99 3443.72C4653.85 3452.45 4682.4 3467.9 4706.58 3488.96C4706.96 3489.32 4707.25 3489.75 4707.45 3490.23C4707.65 3490.71 4707.76 3491.22 4707.76 3491.74C4707.76 3492.26 4707.65 3492.77 4707.45 3493.25C4707.25 3493.73 4706.96 3494.16 4706.58 3494.52C4706.11 3495.09 4705.47 3495.49 4704.76 3495.68C4704.04 3495.87 4703.29 3495.83 4702.59 3495.57Z" fill="white"/>
<path d="M3818.44 534.73L3851.82 547.539V474.043C3851.82 415.666 3898.34 401.702 3948.84 430.89C3999.45 460.079 4040.4 530.95 4040.4 589.327V599.826C4047.43 597.676 4054.87 597.144 4062.14 598.272C4069.41 599.399 4076.34 602.156 4082.39 606.336C4101.57 618.84 4117.53 635.692 4128.96 655.523C4140.4 675.354 4147 697.604 4148.22 720.465V725.295L4194.84 752.173C4207.45 760.406 4217.95 771.491 4225.48 784.533C4233.02 797.574 4237.37 812.206 4238.2 827.244C4238.2 854.963 4218.78 866.197 4194.84 852.338L3818.44 634.894C3805.82 626.681 3795.32 615.598 3787.8 602.55C3780.28 589.503 3775.96 574.862 3775.18 559.823C3775.18 532.21 3794.39 520.975 3818.44 534.73Z" fill="#E6E6E6"/>
<path d="M4265.61 476.563L4326.19 511.526C4325.86 508.879 4325.68 506.214 4325.66 503.546V486.012C4325.66 454.514 4347.5 442.125 4374.59 457.769C4386.23 464.896 4396.19 474.46 4403.78 485.802C4408.19 446.534 4439.06 431.94 4476.44 453.464C4497.8 467.362 4515.58 486.098 4528.35 508.152C4541.12 530.206 4548.51 554.958 4549.93 580.402V606.651C4550.2 617.139 4548.09 627.551 4543.74 637.099L4594.14 666.078C4601.99 671.287 4608.51 678.265 4613.18 686.453C4617.85 694.64 4620.53 703.808 4621.01 713.22C4621.01 730.544 4608.83 737.579 4593.82 728.969L4265.61 539.979C4257.67 534.807 4251.07 527.83 4246.34 519.619C4241.62 511.407 4238.9 502.194 4238.41 492.732C4238.41 474.988 4250.59 467.953 4265.61 476.563Z" fill="#E6E6E6"/>
<path d="M4031.05 2070.06C3986.95 2144.61 3944.54 2209.39 3914.72 2240.47C3858.13 2266.72 3725.2 2307.25 3673.23 2313.97C3664.1 2315.13 3654.86 2312.97 3647.19 2307.88C3626.72 2294.44 3610.86 2292.23 3589.34 2284.78C3572.44 2279 3565.3 2270.92 3562.15 2274.28C3558.89 2278.09 3557.26 2283.02 3557.59 2288.03C3557.92 2293.03 3560.2 2297.7 3563.93 2301.05C3572.01 2308.72 3580.96 2315.42 3590.6 2321C3567.55 2326.72 3543.5 2327.15 3520.25 2322.26C3475.21 2310.4 3454 2332.02 3484.45 2380.95C3494.95 2398.38 3538.21 2426.41 3625.14 2418.85C3656.16 2417.18 3687.04 2413.68 3717.64 2408.36C3801.01 2390.51 3893.72 2373.29 3950.73 2355.86C3971.94 2347.52 3990.92 2334.36 4006.17 2317.43C4102.03 2208.13 4133.84 2130.22 4175.84 2059.46L4172.27 1943.96C4104.23 1941.65 4067.9 2007.7 4031.05 2070.06Z" fill="#FFA8A7"/>
<path d="M4183.92 1941.65C4164.19 1938.88 4144.08 1941.55 4125.76 1949.38C4107.44 1957.21 4091.61 1969.89 4079.98 1986.07C4033.36 2045.81 3950.83 2189.23 3950.83 2189.23C3950.83 2189.23 3977.82 2261.15 4050.68 2273.23L4167.75 2115.11C4167.75 2115.11 4223.19 2005.28 4183.92 1941.65Z" fill="#455A64"/>
<path d="M4437.06 3553.74H4360.73V3689.81H4437.06V3553.74Z" fill="#FFA8A7"/>
<path d="M4172.48 3546.49L4096.25 3549.22L4092.37 3405.17L4172.48 3402.44V3546.49Z" fill="#FFA8A7"/>
<path d="M4447.77 2375.81C4447.77 2451.61 4436.64 3062.37 4436.64 3062.37C4438.32 3084.2 4457.64 3124.52 4453.76 3208.41C4447.98 3322.33 4440.32 3621.78 4440.32 3621.78C4427.22 3628.48 4412.76 3632.12 4398.04 3632.41C4383.33 3632.7 4368.74 3629.64 4355.38 3623.46C4355.38 3623.46 4293.43 3203.48 4279.78 3091.03C4267.81 2992.44 4237.15 2666.12 4237.15 2666.12L4195.89 3051.87C4204.64 3093.26 4207.82 3135.63 4205.34 3177.86C4201.77 3230.36 4177.2 3502.08 4177.2 3502.08C4164.02 3509.86 4149.23 3514.54 4133.97 3515.76C4118.71 3516.97 4103.37 3514.7 4089.11 3509.12C4089.11 3509.12 4045.64 3099.64 4044.8 3051.55C4043.75 2996.95 4070.21 2375.18 4070.21 2375.18L4447.77 2375.81Z" fill="#37474F"/>
<path d="M4360.73 3650.54V3639.2C4353.38 3642.46 4336.48 3709.87 4306.14 3738.63C4282.09 3761.52 4249.33 3787.88 4240.93 3813.39C4232.54 3838.9 4286.61 3854.55 4309.18 3850.45C4335.22 3845.62 4380.58 3826.41 4391.92 3808.46C4403.26 3790.5 4408.61 3764.46 4417.85 3751.44C4427.09 3738.42 4448.4 3723.93 4453.34 3708.82C4454.88 3694.67 4453.41 3680.36 4449.03 3666.82C4445.46 3652.75 4441.68 3637.31 4437.06 3638.68V3647.29C4426.3 3656.12 4412.77 3660.88 4398.85 3660.73C4387.72 3661.67 4360.63 3659.36 4360.73 3650.54Z" fill="#263238"/>
<path d="M4095.41 3524.66C4091.42 3524.66 4088.17 3530.64 4079.45 3540.51C4066.5 3554.14 4051.34 3565.5 4034.62 3574.11C4006.06 3589.02 3950.63 3611.91 3925.32 3623.77C3909.57 3631.12 3910.31 3650.86 3926.58 3662.09C3942.86 3673.33 3982.02 3681.41 4029.06 3670.49C4054.67 3664.51 4088.06 3639.83 4109.27 3641.2C4130.48 3642.56 4169.85 3642.14 4185.5 3630.7C4201.14 3619.26 4194.84 3595.53 4190.43 3575.05C4185.6 3552.58 4179.93 3517.62 4172.48 3519.2V3527.07C4163.34 3541.56 4115.99 3547.44 4095.83 3536.83L4095.41 3524.66Z" fill="#263238"/>
<path d="M4237.15 2666.12C4197.45 2653.12 4161.15 2631.42 4130.9 2602.59C4130.9 2602.59 4151.9 2642.6 4212.38 2679.87L4199.36 3024.36L4237.15 2666.12Z" fill="#263238"/>
<path d="M4405.15 1952.78C4405.15 1952.78 4468.14 1967.27 4463.63 2081.09L4450.5 2262.2V2534.14C4394.44 2597.76 4146.02 2593.15 4060.45 2529.1C4060.45 2529.1 4070.11 2207.29 4075.88 2083.4C4079.98 1995.41 4100.24 1951.1 4186.76 1941.44L4293.12 1946.06L4405.15 1952.78Z" fill="#08732B"/>
<path d="M4324.93 1716.34C4325.29 1731.57 4322.64 1746.73 4317.11 1760.94C4311.59 1775.14 4303.31 1788.11 4292.75 1799.1C4282.19 1810.09 4269.55 1818.89 4255.58 1824.97C4241.61 1831.06 4226.57 1834.32 4211.33 1834.56C4148.33 1834.56 4111.37 1780.17 4097.72 1716.34C4072.52 1599.48 4148.54 1598.01 4211.33 1598.01C4242.08 1598.64 4271.32 1611.46 4292.63 1633.65C4313.93 1655.84 4325.55 1685.58 4324.93 1716.34Z" fill="#263238"/>
<path d="M4382.89 1764.11C4382.89 1764.11 4365.46 1849.36 4358.42 1863.43C4354 1871.9 4346.48 1878.33 4337.42 1881.39L4338.68 1821.44L4382.89 1764.11Z" fill="#263238"/>
<path d="M4360.94 1642C4360.94 1642 4373.44 1638.85 4386.77 1659.64C4398.11 1677.38 4400.74 1717.28 4382.89 1764.63L4350.02 1768.62L4360.94 1642Z" fill="#263238"/>
<path d="M4373.02 1659.33L4413.34 1660.06C4413.61 1657.45 4413.35 1654.82 4412.55 1652.32C4411.76 1649.82 4410.46 1647.52 4408.74 1645.54C4407.01 1643.57 4404.9 1641.98 4402.53 1640.86C4400.16 1639.75 4397.58 1639.13 4394.96 1639.06C4389.45 1639.14 4384.16 1641.25 4380.11 1644.99C4376.06 1648.73 4373.53 1653.84 4373.02 1659.33Z" fill="#263238"/>
<path d="M4377.95 1649.77L4407.77 1621.11C4406.05 1619.08 4403.93 1617.43 4401.55 1616.27C4399.16 1615.1 4396.56 1614.45 4393.9 1614.34C4391.25 1614.23 4388.6 1614.67 4386.13 1615.64C4383.65 1616.6 4381.4 1618.07 4379.53 1619.95C4375.57 1623.82 4373.22 1629.03 4372.92 1634.55C4372.63 1640.08 4374.43 1645.51 4377.95 1649.77Z" fill="#263238"/>
<path d="M4340.15 1768.1C4346.77 1772.19 4356.11 1759.07 4364.3 1750.15C4372.49 1741.22 4397.9 1733.03 4411.13 1762.01C4424.36 1790.99 4401.79 1819.65 4382.89 1829.1C4348.97 1845.9 4338.26 1821.44 4338.26 1821.44L4335.43 1956.46C4287.76 2029.96 4179.62 2027.65 4218.57 1952.89V1911.84C4202.55 1914.5 4186.28 1915.35 4170.06 1914.36C4143.6 1910.16 4127.02 1888.42 4118.93 1858.6C4106.12 1810.73 4101.19 1772.09 4112.11 1677.91C4124.08 1574.8 4239.36 1573.65 4301.1 1614.91C4362.83 1656.18 4340.15 1768.1 4340.15 1768.1Z" fill="#FFA8A7"/>
<path d="M4196.52 1661.84C4224.03 1659.12 4251.22 1653.45 4278.84 1651.35C4284.79 1650.62 4290.83 1650.91 4296.69 1652.19C4317.69 1657.96 4315.17 1682.53 4318.53 1699.64C4324.3 1729.25 4329.02 1779.33 4340.15 1779.54C4343.51 1779.54 4356.11 1757.81 4364.3 1750.04C4368.8 1743.35 4371.35 1735.53 4371.65 1727.47C4373.75 1715.29 4374.8 1702.79 4375.75 1690.4C4376.59 1679.9 4377.64 1669.4 4377.64 1658.91C4378.12 1647.04 4377.16 1635.16 4374.8 1623.52C4372.17 1613.62 4367.12 1604.53 4360.1 1597.06L4358 1594.75C4344.16 1580.28 4327.37 1568.97 4308.76 1561.58C4281.99 1551.55 4253.91 1545.43 4225.4 1543.41C4196.92 1541.39 4168.57 1537.89 4140.46 1532.91C4138.84 1532.44 4137.13 1532.44 4135.52 1532.91C4134.38 1533.54 4133.42 1534.45 4132.72 1535.55C4132.02 1536.65 4131.61 1537.91 4131.53 1539.21C4130.38 1545.74 4131.1 1552.45 4133.61 1558.59C4136.12 1564.72 4140.31 1570.01 4145.7 1573.86C4126.7 1575.33 4104.86 1565.46 4086.59 1560.42C4085.11 1559.79 4083.53 1559.47 4081.92 1559.47C4080.32 1559.47 4078.73 1559.79 4077.25 1560.42C4075.42 1561.7 4074.11 1563.6 4073.57 1565.77C4072.24 1570.71 4072.06 1575.88 4073.05 1580.89C4074.72 1596.09 4080.37 1610.58 4089.43 1622.89C4103.58 1641.32 4123.57 1654.38 4146.12 1659.95C4162.73 1663.16 4179.73 1663.79 4196.52 1661.84Z" fill="#263238"/>
<path d="M4218.68 1911.84C4218.68 1911.84 4277.68 1899.45 4298.26 1888C4310.52 1881.3 4320.47 1871.05 4326.82 1858.6C4323.72 1871.11 4318.19 1882.88 4310.55 1893.25C4295.53 1913.41 4218.68 1928.11 4218.68 1928.11V1911.84Z" fill="#F28F8F"/>
<path d="M4232.85 1752.66C4232.74 1755.91 4233.91 1759.06 4236.11 1761.44C4238.31 1763.82 4241.37 1765.23 4244.61 1765.37C4247.18 1765.58 4249.76 1765.01 4252 1763.73C4254.24 1762.46 4256.05 1760.53 4257.18 1758.21C4258.31 1755.89 4258.71 1753.28 4258.33 1750.73C4257.95 1748.18 4256.81 1745.8 4255.06 1743.9C4253.31 1742.01 4251.02 1740.69 4248.51 1740.11C4245.99 1739.54 4243.36 1739.74 4240.96 1740.69C4238.56 1741.63 4236.5 1743.29 4235.05 1745.42C4233.6 1747.56 4232.84 1750.08 4232.85 1752.66Z" fill="#263238"/>
<path d="M4251.75 1701.74L4277.05 1716.34C4278.89 1712.74 4279.31 1708.58 4278.22 1704.69C4277.13 1700.79 4274.61 1697.46 4271.17 1695.34C4269.49 1694.4 4267.64 1693.81 4265.72 1693.63C4263.81 1693.44 4261.88 1693.66 4260.05 1694.26C4258.22 1694.86 4256.54 1695.84 4255.11 1697.13C4253.68 1698.42 4252.54 1699.99 4251.75 1701.74Z" fill="#263238"/>
<path d="M4223.93 1837.82L4196.94 1848.31C4197.48 1850.17 4198.4 1851.88 4199.64 1853.37C4200.87 1854.85 4202.4 1856.06 4204.12 1856.93C4205.84 1857.79 4207.73 1858.3 4209.65 1858.4C4211.58 1858.51 4213.51 1858.22 4215.32 1857.55C4218.99 1855.97 4221.92 1853.05 4223.52 1849.39C4225.12 1845.72 4225.26 1841.58 4223.93 1837.82Z" fill="#F28F8F"/>
<path d="M4124.29 1712.56L4147.38 1694.08C4146.35 1692.47 4144.99 1691.09 4143.38 1690.04C4141.78 1688.99 4139.97 1688.28 4138.08 1687.98C4136.19 1687.67 4134.26 1687.76 4132.4 1688.25C4130.55 1688.75 4128.82 1689.62 4127.33 1690.82C4124.24 1693.44 4122.23 1697.1 4121.67 1701.11C4121.1 1705.12 4122.04 1709.19 4124.29 1712.56Z" fill="#263238"/>
<path d="M4134.47 1749.2C4134.65 1751.5 4135.5 1753.69 4136.91 1755.51C4138.32 1757.34 4140.23 1758.71 4142.41 1759.46C4144.59 1760.22 4146.94 1760.32 4149.17 1759.77C4151.41 1759.21 4153.43 1758.01 4155 1756.32C4156.57 1754.63 4157.61 1752.52 4157.99 1750.24C4158.38 1747.97 4158.1 1745.64 4157.18 1743.52C4156.26 1741.41 4154.74 1739.61 4152.82 1738.34C4150.89 1737.08 4148.64 1736.4 4146.33 1736.39C4144.71 1736.44 4143.12 1736.82 4141.64 1737.49C4140.16 1738.17 4138.83 1739.13 4137.73 1740.32C4136.63 1741.51 4135.77 1742.91 4135.21 1744.43C4134.65 1745.96 4134.4 1747.58 4134.47 1749.2Z" fill="#263238"/>
<path d="M4197.78 1739.33L4196.42 1813.98L4154 1804.32L4197.78 1739.33Z" fill="#F28F8F"/>
<path d="M3190.47 2364.57L3256.3 2326.56L3282.34 2294.96L3216.61 2332.97L3190.47 2364.57Z" fill="#08732B"/>
<path opacity="0.4" d="M3190.47 2364.57L3256.3 2326.56L3282.34 2294.96L3216.61 2332.97L3190.47 2364.57Z" fill="black"/>
<path d="M3369.48 2467.89L3435.31 2429.88L3490.22 2381.27L3424.5 2419.17L3369.48 2467.89Z" fill="#08732B"/>
<path opacity="0.4" d="M3369.48 2467.89L3435.31 2429.88L3490.22 2381.27L3424.5 2419.17L3369.48 2467.89Z" fill="black"/>
<path d="M3928.68 2599.02C3944.25 2619.89 3953.67 2644.69 3955.87 2670.63C3940.38 2649.73 3930.97 2624.95 3928.68 2599.02ZM4081.66 2601.02C4059.5 2450.35 3978.55 2301.37 3882.17 2245.61C3835.87 2218.84 3793.03 2217.9 3758.7 2237.95L3696.75 2273.65L3693.28 2275.75C3690.53 2277.27 3687.86 2278.95 3685.3 2280.79C3680.22 2284.29 3675.44 2288.22 3671.02 2292.55L3668.93 2294.54C3667.04 2296.43 3665.04 2298.64 3663.26 2300.74C3661.47 2302.84 3658.74 2306.09 3656.64 2308.93C3652.18 2314.79 3648.15 2320.97 3644.57 2327.4C3642.68 2330.66 3640.89 2334.12 3639.21 2337.9L3098.18 2025.65L3032.45 2063.55V2105.55L3038.01 2108.7L3043.26 2111.75V2120.15L3032.76 2126.34V2150.7L3112.24 2318.69L3190.78 2364.15L3216.92 2332.65L3286.22 2374.13L3326.01 2442.27L3369.9 2467.57L3424.81 2418.85L3492.22 2457.81L3514.9 2551.36L3628.19 2616.87C3633.79 2640.68 3640.8 2664.14 3649.19 2687.12C3649.92 2689.43 3650.87 2691.84 3651.81 2694.46C3689.4 2793.16 3749.14 2877.68 3816.55 2916.63C3824.63 2921.42 3833.09 2925.53 3841.85 2928.92C3846.48 2930.76 3851.21 2932.34 3856.03 2933.64C3860.23 2934.76 3864.42 2935.71 3868.62 2936.48C3881.88 2938.89 3895.47 2938.89 3908.73 2936.48L3914.19 2935.11C3916.8 2934.59 3919.37 2933.85 3921.86 2932.91L3927.74 2930.6C3929.82 2929.85 3931.82 2928.9 3933.72 2927.76C3935.66 2926.92 3937.55 2925.98 3939.39 2924.93L3942.12 2923.25C3942.62 2923.09 3943.08 2922.84 3943.49 2922.51C3958.5 2913.9 3995.46 2892.48 4005.54 2886.81C4055.51 2857.84 4087.85 2784.55 4087.85 2680.92C4087.77 2654.17 4085.7 2627.46 4081.66 2601.02Z" fill="#08732B"/>
<path d="M3909.47 2726.17C3883.43 2711.16 3862.43 2666.64 3862.43 2626.74C3862.43 2586.85 3883.43 2566.58 3909.47 2581.49C3935.51 2596.4 3956.4 2641.02 3956.4 2681.03C3956.4 2721.03 3935.4 2741.19 3909.47 2726.17ZM4015.83 2638.92C3993.78 2488.36 3912.83 2339.27 3816.34 2283.62C3771.61 2257.79 3730.24 2255.9 3696.64 2273.65L3693.18 2275.75C3690.42 2277.27 3687.76 2278.95 3685.2 2280.79C3680.11 2284.29 3675.33 2288.22 3670.92 2292.55L3668.82 2294.54C3666.93 2296.43 3664.93 2298.64 3663.15 2300.74C3661.37 2302.84 3658.64 2306.09 3656.54 2308.93C3652.08 2314.79 3648.04 2320.97 3644.46 2327.4C3642.57 2330.66 3640.79 2334.12 3639.11 2337.9C3629.32 2358.2 3622.26 2379.7 3618.11 2401.85L3032.34 2063.55V2105.55L3037.91 2108.7L3043.16 2111.75V2120.15L3032.66 2126.34V2150.7L3112.14 2318.69L3190.68 2364.15L3216.82 2332.65L3286.12 2374.13L3325.91 2442.27L3369.8 2467.57L3424.71 2418.85L3492.11 2457.81L3514.79 2551.36L3628.19 2616.87C3633.79 2640.68 3640.8 2664.14 3649.19 2687.12C3649.92 2689.42 3650.87 2691.84 3651.81 2694.46C3689.4 2793.16 3749.14 2877.68 3816.55 2916.63C3824.63 2921.42 3833.09 2925.53 3841.85 2928.92C3846.48 2930.76 3851.21 2932.34 3856.03 2933.64C3860.22 2934.76 3864.42 2935.71 3868.62 2936.48C3881.88 2938.89 3895.47 2938.89 3908.73 2936.48L3914.19 2935.11C3916.8 2934.59 3919.37 2933.85 3921.86 2932.91L3927.74 2930.6C3929.82 2929.85 3931.82 2928.9 3933.72 2927.76C3935.66 2926.92 3937.55 2925.98 3939.39 2924.93L3942.12 2923.25C3942.62 2923.08 3943.08 2922.84 3943.49 2922.51C3991.36 2892.27 4022.13 2820.04 4022.13 2718.93C4021.95 2692.14 4019.84 2665.41 4015.83 2638.92Z" fill="#08732B"/>
<path opacity="0.4" d="M3956.4 2680.92C3956.4 2720.92 3935.4 2741.19 3909.47 2726.17C3883.53 2711.16 3862.43 2666.75 3862.43 2626.74C3862.43 2586.74 3883.43 2566.48 3909.47 2581.49C3916.97 2586.05 3923.49 2592.05 3928.68 2599.13C3930.94 2625.06 3940.35 2649.85 3955.87 2670.74C3956.26 2674.12 3956.43 2677.52 3956.4 2680.92Z" fill="black"/>
<path opacity="0.4" d="M4087.64 2680.82C4087.64 2784.44 4055.3 2857.73 4005.33 2886.71C3994.83 2892.38 3958.29 2913.8 3943.28 2922.41C3991.15 2892.17 4021.92 2819.93 4021.92 2718.82C4021.8 2692.08 4019.77 2665.38 4015.83 2638.92C3993.78 2488.36 3912.83 2339.27 3816.34 2283.62C3771.61 2257.79 3730.24 2255.9 3696.64 2273.65L3758.59 2237.95C3792.92 2217.89 3835.76 2218.84 3882.06 2245.61C3978.55 2301.37 4059.5 2450.35 4081.55 2601.02C4085.55 2627.43 4087.59 2654.1 4087.64 2680.82Z" fill="white"/>
<path d="M4021.92 2718.61C4021.92 2819.72 3991.15 2891.96 3943.28 2922.2C3958.29 2913.59 3995.25 2892.17 4005.33 2886.5C4055.3 2857.52 4087.64 2784.24 4087.64 2680.61C4087.64 2676.83 4087.64 2672.94 4087.64 2669.06L4021.92 2707.06C4021.81 2711.16 4021.92 2714.94 4021.92 2718.61Z" fill="#08732B"/>
<path opacity="0.1" d="M4021.92 2718.61C4021.92 2819.72 3991.15 2891.96 3943.28 2922.2C3958.29 2913.59 3995.25 2892.17 4005.33 2886.5C4055.3 2857.52 4087.64 2784.24 4087.64 2680.61C4087.64 2676.83 4087.64 2672.94 4087.64 2669.06L4021.92 2707.06C4021.81 2711.16 4021.92 2714.94 4021.92 2718.61Z" fill="black"/>
<path opacity="0.15" d="M3620.63 2444.79V2466.1L3032.45 2126.55L3043.26 2120.25V2111.43L3620.63 2444.79Z" fill="black"/>
<path opacity="0.15" d="M3620.63 2453.61V2466.1L3032.45 2126.55L3043.26 2120.25V2120.15L3620.63 2453.61Z" fill="black"/>
<path opacity="0.15" d="M3876.39 2886.6C3854.1 2886.03 3832.36 2879.54 3813.4 2867.81C3717.54 2812.48 3639.53 2647.85 3639.53 2500.86C3639.53 2415.07 3665.46 2351.03 3710.71 2324.88C3742.21 2306.62 3779.48 2308.93 3818.65 2331.5C3914.4 2386.83 3992.41 2551.99 3992.41 2698.98C3992.41 2784.65 3966.48 2848.81 3921.23 2874.85C3907.58 2882.64 3892.11 2886.7 3876.39 2886.6ZM3756.18 2323.31C3742.18 2323.23 3728.42 2326.85 3716.28 2333.81C3675.01 2357.64 3650.34 2420.11 3650.34 2500.75C3650.34 2644.38 3725.94 2805.23 3818.96 2858.57C3854.56 2879.57 3888.26 2881.46 3916.29 2865.29C3957.55 2841.46 3982.23 2779.09 3982.23 2698.45C3982.23 2554.72 3906.63 2393.97 3813.71 2340.53C3796.35 2329.96 3776.5 2324.17 3756.18 2323.73V2323.31Z" fill="black"/>
<path opacity="0.4" d="M3638.69 2337.69C3628.9 2357.99 3621.84 2379.49 3617.69 2401.64L3031.92 2063.34L3097.65 2025.44L3638.69 2337.69Z" fill="white"/>
<path d="M4400 2370.56C4430.66 2312.5 4465.73 2182.09 4483.16 2116.26C4507.94 2022.82 4467.83 1964.02 4422.26 1961.6C4393.81 1966.01 4300.05 2306.93 4300.05 2306.93C4289.55 2315.22 4147.07 2387.57 4101.29 2405.73C4093.11 2408.83 4084.07 2408.83 4075.88 2405.73C4053.94 2397.75 4038.93 2399.22 4017.4 2397.12C4000.5 2395.44 3991.99 2389.46 3989.79 2393.03C3987.79 2397.46 3987.53 2402.48 3989.07 2407.09C3990.6 2411.7 3993.82 2415.57 3998.08 2417.91C4007.35 2423.31 4017.22 2427.61 4027.48 2430.72C4009.08 2436.3 3989.9 2438.89 3970.68 2438.38C3926.58 2437.44 3910.73 2456.55 3944.96 2501.38C3965.95 2529.31 4000.71 2538.13 4078.3 2511.35C4100.56 2503.59 4130.8 2488.57 4159.04 2478.39C4217.21 2457.39 4232.54 2454.87 4276.84 2439.85C4341.41 2418.01 4386.35 2396.39 4400 2370.56Z" fill="#FFA8A7"/>
<path d="M4405.15 1952.78C4431.92 1956.46 4457.64 1962.44 4473.5 1984.28C4489.35 2006.12 4502.06 2036.78 4486.52 2120.25C4474.62 2178.95 4458.69 2236.77 4438.85 2293.28C4438.85 2293.28 4376.48 2319.95 4310.23 2252.33L4355.8 2076.15C4355.8 2076.15 4363.15 1961.6 4405.15 1952.78Z" fill="#455A64"/>
</svg>
