<svg width="5250" height="3912" viewBox="0 0 5250 3912" fill="none" xmlns="http://www.w3.org/2000/svg">
<path d="M5249.72 3437.52H0V3440.14H5249.72V3437.52Z" fill="#E0E0E0"/>
<path d="M3965.22 3548.71H3604.04V3551.33H3965.22V3548.71Z" fill="#E0E0E0"/>
<path d="M1165.86 3549.97H962.589V3552.59H1165.86V3549.97Z" fill="#E0E0E0"/>
<path d="M2635.36 3543.88H2223.36V3546.5H2635.36V3543.88Z" fill="#E0E0E0"/>
<path d="M2212.86 3506.5H2028.7V3509.12H2212.86V3506.5Z" fill="#E0E0E0"/>
<path d="M4457.64 3507.86H3901.28V3510.49H4457.64V3507.86Z" fill="#E0E0E0"/>
<path d="M2488.37 2969.24H461.03C445.148 2969.21 429.926 2962.89 418.706 2951.65C407.485 2940.41 401.184 2925.17 401.184 2909.29V59.4268C401.322 43.6359 407.685 28.5373 418.89 17.4104C430.096 6.28348 445.239 0.0270506 461.03 0H2488.37C2504.27 0 2519.52 6.31634 2530.76 17.5595C2542 28.8026 2548.32 44.0516 2548.32 59.9518V2909.29C2548.32 2925.19 2542 2940.44 2530.76 2951.68C2519.52 2962.93 2504.27 2969.24 2488.37 2969.24ZM461.03 2.0999C445.845 2.12771 431.29 8.17975 420.562 18.9276C409.834 29.6755 403.808 44.241 403.808 59.4268V2909.29C403.808 2924.48 409.834 2939.04 420.562 2949.79C431.29 2960.54 445.845 2966.59 461.03 2966.62H2488.37C2503.56 2966.59 2518.13 2960.54 2528.87 2949.8C2539.62 2939.05 2545.67 2924.49 2545.69 2909.29V59.4268C2545.67 44.2313 2539.62 29.6661 2528.87 18.9212C2518.13 8.17634 2503.56 2.12765 2488.37 2.0999H461.03Z" fill="#E0E0E0"/>
<path d="M4759.5 2969.24H2732.06C2716.17 2969.21 2700.94 2962.89 2689.7 2951.65C2678.46 2940.41 2672.14 2925.18 2672.11 2909.29V59.4268C2672.27 43.6264 2678.66 28.5278 2689.88 17.4038C2701.1 6.27981 2716.26 0.0267556 2732.06 0H4759.5C4775.28 0.0546443 4790.39 6.32328 4801.57 17.4472C4812.76 28.5711 4819.11 43.6541 4819.24 59.4268V2909.29C4819.24 2925.15 4812.96 2940.37 4801.76 2951.61C4790.56 2962.85 4775.37 2969.19 4759.5 2969.24ZM2732.06 2.0999C2716.86 2.12765 2702.3 8.17634 2691.55 18.9212C2680.81 29.6661 2674.76 44.2313 2674.73 59.4268V2909.29C2674.76 2924.49 2680.81 2939.05 2691.55 2949.8C2702.3 2960.54 2716.86 2966.59 2732.06 2966.62H4759.5C4774.7 2966.59 4789.26 2960.54 4800.01 2949.8C4810.75 2939.05 4816.8 2924.49 4816.83 2909.29V59.4268C4816.8 44.2313 4810.75 29.6661 4800.01 18.9212C4789.26 8.17634 4774.7 2.12765 4759.5 2.0999H2732.06Z" fill="#E0E0E0"/>
<path d="M4612.51 2123.3C4483.37 1926.65 4601.28 1715.29 4581.64 1496.49C4562.01 1277.68 4354.12 1230.01 4393.49 1045.01C4439.06 829.981 4317.58 623.667 4179.93 623.667C4042.28 623.667 3920.91 829.456 3966.48 1044.69C4005.85 1230.01 3798.49 1277.78 3778.33 1496.17C3758.17 1714.56 3876.6 1926.65 3747.36 2122.99C3618.11 2319.33 3652.13 2580.03 3724.89 2709.28C3744.24 2743.57 3767.57 2775.46 3794.39 2804.3C3843.71 2857.23 3903.39 2899.45 3969.73 2928.32C4036.07 2957.18 4107.64 2972.08 4179.98 2972.08C4252.33 2972.08 4323.9 2957.18 4390.24 2928.32C4456.58 2899.45 4516.27 2857.23 4565.58 2804.3C4592.33 2775.43 4615.62 2743.54 4634.98 2709.28C4707.84 2580.34 4741.76 2320.38 4612.51 2123.3Z" fill="#E0E0E0"/>
<path d="M4179.93 2272.5C4188.51 2272.5 4197 2274.19 4204.92 2277.47C4212.85 2280.75 4220.05 2285.56 4226.11 2291.63C4232.18 2297.69 4236.99 2304.89 4240.27 2312.81C4243.55 2320.74 4245.24 2329.23 4245.24 2337.81V3437.52H4114.63V2337.81C4114.63 2329.23 4116.32 2320.74 4119.6 2312.81C4122.88 2304.89 4127.69 2297.69 4133.75 2291.63C4139.82 2285.56 4147.02 2280.75 4154.94 2277.47C4162.86 2274.19 4171.36 2272.5 4179.93 2272.5Z" fill="#F0F0F0"/>
<path d="M3358.88 3437.52H3181.33V2337.91C3181.39 2314.34 3190.77 2291.75 3207.44 2275.09C3224.1 2258.42 3246.69 2249.04 3270.26 2248.98C3293.83 2249.04 3316.42 2258.42 3333.08 2275.09C3349.75 2291.75 3359.14 2314.34 3359.19 2337.91L3358.88 3437.52Z" fill="#E0E0E0"/>
<path d="M3269.95 3140.91C3572.46 3140.91 3817.7 2895.67 3817.7 2593.15C3817.7 2290.63 3572.46 2045.4 3269.95 2045.4C2967.43 2045.4 2722.19 2290.63 2722.19 2593.15C2722.19 2895.67 2967.43 3140.91 3269.95 3140.91Z" fill="#F0F0F0"/>
<path d="M3913.6 2428.79C3942.34 2313.08 3871.84 2195.98 3756.14 2167.24C3640.43 2138.5 3523.34 2209 3494.6 2324.7C3465.85 2440.41 3536.35 2557.51 3652.06 2586.25C3767.76 2614.99 3884.86 2544.49 3913.6 2428.79Z" fill="#F0F0F0"/>
<path d="M2952.98 2269.45C2964.32 2199.8 2917.05 2134.14 2847.4 2122.79C2777.75 2111.45 2712.09 2158.72 2700.75 2228.37C2689.4 2298.02 2736.67 2363.68 2806.32 2375.03C2875.98 2386.37 2941.64 2339.1 2952.98 2269.45Z" fill="#F0F0F0"/>
<path d="M2965.88 2272.5C3015.4 2272.5 3055.55 2232.35 3055.55 2182.83C3055.55 2133.31 3015.4 2093.17 2965.88 2093.17C2916.36 2093.17 2876.22 2133.31 2876.22 2182.83C2876.22 2232.35 2916.36 2272.5 2965.88 2272.5Z" fill="#F0F0F0"/>
<path d="M2141.89 2781.2C2056.71 2793.88 1975.31 2824.94 1903.34 2872.23C1902.71 2789.07 1887.48 2710.22 1848.43 2646.49C1789 2704.34 1740.81 2779.31 1701.43 2859.94C1687.05 2708.86 1647.26 2561.86 1559.17 2468.73C1427.19 2551.78 1359.15 2690.17 1326.81 2836.74C1273.39 2737.91 1195.85 2654.19 1101.39 2593.36C1020.65 2678.41 994.822 2796 997.027 2916.53C905.262 2809.65 803.417 2726.28 704.093 2716.52C679.629 2885.46 731.706 3044.84 797.958 3170.83C840.97 3251.67 905.228 3319.23 983.806 3366.25C1062.38 3413.26 1152.3 3437.94 1243.87 3437.62H1675.29C1859.14 3437.62 2031.54 3339.56 2117.74 3177.13C2172.23 3074.24 2198.27 2941.84 2141.89 2781.2Z" fill="#E0E0E0"/>
<path d="M2018.62 599.938C2071.85 443.811 2029.12 332.622 1899.24 332.622C1817.56 332.622 1716.24 376.405 1617.54 447.591C1606.41 406.958 1575.02 382.704 1524.52 382.704C1435.59 382.704 1313.06 457.88 1216.99 563.925C1189.94 538.227 1154.13 523.776 1116.83 523.502C1031.68 518.672 928.675 561.93 839.115 632.171C834.628 625.89 828.703 620.774 821.835 617.249C814.968 613.723 807.357 611.892 799.637 611.907C750.605 609.177 684.144 652.855 651.28 709.342C649.285 712.807 647.5 716.272 645.611 719.841H2044.45C2048.65 670.494 2039.94 629.336 2018.62 599.938Z" fill="#F0F0F0"/>
<path d="M2022.93 1547.93C2048.97 1471.71 2028.28 1417.42 1964.66 1417.42C1924.65 1417.42 1875.2 1438.42 1827.01 1473.6C1824.41 1463.8 1818.41 1455.25 1810.08 1449.47C1801.75 1443.7 1791.63 1441.09 1781.55 1442.1C1738.18 1442.1 1678.34 1478.85 1631.3 1530.71C1618.11 1518.12 1600.6 1511.06 1582.37 1510.97C1540.37 1508.56 1490.5 1529.66 1446.72 1564C1444.6 1560.96 1441.79 1558.47 1438.52 1556.72C1435.26 1554.96 1431.63 1554.01 1427.92 1553.92C1403.99 1552.55 1371.54 1573.87 1355.48 1601.48L1352.64 1606.52H2035.95C2038.8 1586.06 2034.18 1565.26 2022.93 1547.93Z" fill="#F0F0F0"/>
<path d="M3598.89 971.093C3593.5 970.336 3588.06 969.95 3582.62 969.938C3587.66 893.817 3558.58 845.1 3496.31 845.1C3451.48 845.1 3396.36 870.509 3340.29 913.451C3356.36 765.619 3304.91 669.549 3188.37 669.549C3094.5 669.549 2975.54 732.546 2858.05 833.971C2847.55 776.014 2813.12 741.156 2754.95 741.156C2652.79 741.156 2507.58 848.67 2391.14 1000.28C2377.87 982.799 2360.86 968.51 2341.35 958.463C2321.83 948.415 2300.32 942.865 2278.38 942.22C2181.15 935.395 2060.31 997.132 1952.9 1097.72C1948.99 1089.23 1942.77 1082.03 1934.95 1076.92C1927.13 1071.81 1918.03 1069.01 1908.69 1068.84C1855.46 1065.06 1782.7 1120.61 1739.55 1194.84H3684.46C3730.14 1082.28 3693.81 983.798 3598.89 971.093Z" fill="#F0F0F0"/>
<path d="M2624.86 3911.67C3749.17 3911.67 4660.6 3858.46 4660.6 3792.82C4660.6 3727.18 3749.17 3673.96 2624.86 3673.96C1500.55 3673.96 589.124 3727.18 589.124 3792.82C589.124 3858.46 1500.55 3911.67 2624.86 3911.67Z" fill="#F5F5F5"/>
<path d="M513.003 1003.33L2906.56 1347.92L3227.74 1672.04L513.003 1003.33Z" fill="#08732B"/>
<path opacity="0.6" d="M513.003 1003.33L2906.56 1347.92L3227.74 1672.04L513.003 1003.33Z" fill="white"/>
<path d="M513.003 1003.33L2906.56 1347.92L2795.48 1816.61L513.003 1003.33Z" fill="#08732B"/>
<path opacity="0.2" d="M513.003 1003.33L2906.56 1347.92L2795.48 1816.61L513.003 1003.33Z" fill="black"/>
<path d="M2746.34 460.716L2885.25 1111.68C2888.86 1128.68 2885.58 1146.42 2876.14 1161C2866.69 1175.59 2851.84 1185.83 2834.85 1189.48L1595.08 1454.07C1578.08 1457.65 1560.36 1454.36 1545.78 1444.92C1531.2 1435.48 1520.95 1420.65 1517.27 1403.67L1378.26 752.705C1374.68 735.694 1377.98 717.958 1387.45 703.376C1396.91 688.795 1411.77 678.558 1428.76 674.904L2668.54 410.318C2685.55 406.736 2703.29 410.039 2717.87 419.504C2732.45 428.969 2742.69 443.825 2746.34 460.821V460.716Z" fill="#08732B"/>
<path opacity="0.4" d="M2746.34 460.716L2885.25 1111.68C2888.86 1128.68 2885.58 1146.42 2876.14 1161C2866.69 1175.59 2851.84 1185.83 2834.85 1189.48L1595.08 1454.07C1578.08 1457.65 1560.36 1454.36 1545.78 1444.92C1531.2 1435.48 1520.95 1420.65 1517.27 1403.67L1378.26 752.705C1374.68 735.694 1377.98 717.958 1387.45 703.376C1396.91 688.795 1411.77 678.558 1428.76 674.904L2668.54 410.318C2685.55 406.736 2703.29 410.039 2717.87 419.504C2732.45 428.969 2742.69 443.825 2746.34 460.821V460.716Z" fill="black"/>
<path d="M2715.79 418.088L2301.58 926.575C2263.17 973.719 2209.81 1006.34 2150.34 1019.03C2090.87 1031.73 2028.84 1023.74 1974.52 996.397L1388.76 701.363C1398.24 687.749 1412.54 678.252 1428.76 674.799L2668.54 410.213C2684.72 406.77 2701.6 409.583 2715.79 418.088Z" fill="#08732B"/>
<path d="M513.003 1003.33L2487.21 1472.55L2795.48 1816.61L513.003 1003.33Z" fill="#08732B"/>
<path opacity="0.6" d="M513.003 1003.33L2487.21 1472.55L2795.48 1816.61L513.003 1003.33Z" fill="white"/>
<path d="M1233.15 1455.59L1227.84 1464.65L1447.54 1593.34L1452.84 1584.28L1233.15 1455.59Z" fill="#08732B"/>
<path d="M1549.84 1641.02L1544.53 1650.08L1623.53 1696.35L1628.84 1687.29L1549.84 1641.02Z" fill="#08732B"/>
<path d="M513.003 1003.33L2487.21 1472.55L2103.46 1935.05L513.003 1003.33Z" fill="#08732B"/>
<path d="M3153.61 2102.62C3150.95 2102.62 3148.32 2102.13 3145.84 2101.15L2824.35 1973.89C2819.21 1971.82 2815.09 1967.8 2812.9 1962.71C2810.71 1957.61 2810.63 1951.86 2812.67 1946.7C2814.7 1941.54 2818.7 1937.4 2823.78 1935.18C2828.86 1932.96 2834.61 1932.83 2839.78 1934.84L3161.38 2062.09C3165.93 2063.89 3169.71 2067.22 3172.07 2071.51C3174.42 2075.79 3175.21 2080.77 3174.29 2085.57C3173.37 2090.38 3170.8 2094.71 3167.02 2097.82C3163.25 2100.93 3158.5 2102.63 3153.61 2102.62Z" fill="#08732B"/>
<path opacity="0.3" d="M3153.61 2102.62C3150.95 2102.62 3148.32 2102.13 3145.84 2101.15L2824.35 1973.89C2819.21 1971.82 2815.09 1967.8 2812.9 1962.71C2810.71 1957.61 2810.63 1951.86 2812.67 1946.7C2814.7 1941.54 2818.7 1937.4 2823.78 1935.18C2828.86 1932.96 2834.61 1932.83 2839.78 1934.84L3161.38 2062.09C3165.93 2063.89 3169.71 2067.22 3172.07 2071.51C3174.42 2075.79 3175.21 2080.77 3174.29 2085.57C3173.37 2090.38 3170.8 2094.71 3167.02 2097.82C3163.25 2100.93 3158.5 2102.63 3153.61 2102.62Z" fill="black"/>
<path d="M3134.61 1918.25C3131.97 1918.23 3129.37 1917.7 3126.94 1916.67L2954.23 1847.9C2951.65 1846.9 2949.29 1845.4 2947.29 1843.48C2945.29 1841.57 2943.69 1839.27 2942.58 1836.74C2941.47 1834.2 2940.87 1831.47 2940.82 1828.7C2940.77 1825.93 2941.27 1823.18 2942.29 1820.6C2943.3 1818.03 2944.82 1815.68 2946.75 1813.69C2948.68 1811.71 2950.98 1810.12 2953.53 1809.03C2956.07 1807.93 2958.81 1807.36 2961.58 1807.32C2964.35 1807.29 2967.09 1807.81 2969.66 1808.84L3142.38 1877.3C3147.55 1879.34 3151.71 1883.34 3153.93 1888.44C3156.16 1893.54 3156.27 1899.31 3154.24 1904.49C3152.76 1908.52 3150.09 1911.99 3146.58 1914.45C3143.07 1916.91 3138.89 1918.23 3134.61 1918.25Z" fill="#08732B"/>
<path opacity="0.5" d="M3134.61 1918.25C3131.97 1918.23 3129.37 1917.7 3126.94 1916.67L2954.23 1847.9C2951.65 1846.9 2949.29 1845.4 2947.29 1843.48C2945.29 1841.57 2943.69 1839.27 2942.58 1836.74C2941.47 1834.2 2940.87 1831.47 2940.82 1828.7C2940.77 1825.93 2941.27 1823.18 2942.29 1820.6C2943.3 1818.03 2944.82 1815.68 2946.75 1813.69C2948.68 1811.71 2950.98 1810.12 2953.53 1809.03C2956.07 1807.93 2958.81 1807.36 2961.58 1807.32C2964.35 1807.29 2967.09 1807.81 2969.66 1808.84L3142.38 1877.3C3147.55 1879.34 3151.71 1883.34 3153.93 1888.44C3156.16 1893.54 3156.27 1899.31 3154.24 1904.49C3152.76 1908.52 3150.09 1911.99 3146.58 1914.45C3143.07 1916.91 3138.89 1918.23 3134.61 1918.25Z" fill="white"/>
<path d="M2773.53 2099.89C2770.91 2099.86 2768.31 2099.36 2765.87 2098.42L2452.25 1973.89C2449.67 1972.89 2447.31 1971.39 2445.31 1969.48C2443.31 1967.56 2441.71 1965.27 2440.6 1962.73C2439.49 1960.19 2438.89 1957.46 2438.84 1954.69C2438.79 1951.92 2439.29 1949.17 2440.31 1946.6C2441.33 1944.02 2442.84 1941.67 2444.77 1939.69C2446.7 1937.7 2449 1936.11 2451.55 1935.02C2454.09 1933.93 2456.83 1933.35 2459.6 1933.32C2462.37 1933.29 2465.12 1933.8 2467.68 1934.84L2781.3 2058.94C2785.85 2060.74 2789.63 2064.07 2791.99 2068.36C2794.34 2072.64 2795.13 2077.62 2794.21 2082.42C2793.29 2087.23 2790.72 2091.56 2786.94 2094.67C2783.17 2097.78 2778.42 2099.48 2773.53 2099.47V2099.89Z" fill="#08732B"/>
<path opacity="0.3" d="M2773.53 2099.89C2770.91 2099.86 2768.31 2099.36 2765.87 2098.42L2452.25 1973.89C2449.67 1972.89 2447.31 1971.39 2445.31 1969.48C2443.31 1967.56 2441.71 1965.27 2440.6 1962.73C2439.49 1960.19 2438.89 1957.46 2438.84 1954.69C2438.79 1951.92 2439.29 1949.17 2440.31 1946.6C2441.33 1944.02 2442.84 1941.67 2444.77 1939.69C2446.7 1937.7 2449 1936.11 2451.55 1935.02C2454.09 1933.93 2456.83 1933.35 2459.6 1933.32C2462.37 1933.29 2465.12 1933.8 2467.68 1934.84L2781.3 2058.94C2785.85 2060.74 2789.63 2064.07 2791.99 2068.36C2794.34 2072.64 2795.13 2077.62 2794.21 2082.42C2793.29 2087.23 2790.72 2091.56 2786.94 2094.67C2783.17 2097.78 2778.42 2099.48 2773.53 2099.47V2099.89Z" fill="black"/>
<path d="M3908.94 1153.05C3936.77 1207.33 3962.28 1261.72 3986.53 1317.37C4010.79 1373.01 4033.36 1429.39 4053.1 1488.51L4060.24 1510.87C4061.5 1514.86 4063.28 1521.37 4064.33 1525.99C4065.38 1530.61 4066.33 1535.86 4066.85 1540.27C4069.26 1557.21 4070.48 1574.29 4070.53 1591.4C4070.69 1622.95 4069.21 1654.49 4066.12 1685.9C4060.26 1746.68 4050.72 1807.06 4037.56 1866.7L3979.92 1860.29C3979.18 1801.18 3978.66 1741.44 3976.56 1683.17C3975.61 1654.19 3973.93 1625.1 3970.99 1597.81C3969.66 1584.99 3967.56 1572.26 3964.69 1559.69C3964.17 1556.75 3963.33 1554.55 3962.7 1552.13C3962.07 1549.72 3961.44 1548.88 3960.39 1545.73L3952.41 1525.88C3930.47 1472.76 3905.79 1419.21 3880.59 1365.87L3804.37 1205.86L3908.94 1153.05Z" fill="#E4897B"/>
<path d="M3980.76 1841.81L3953.88 1892.1L4039.77 1916.04C4039.77 1916.04 4056.14 1875.62 4036.62 1843.7L3980.76 1841.81Z" fill="#E4897B"/>
<path d="M3921.02 1964.55L3999.97 1970.85L4039.77 1916.04L3953.88 1892.1L3921.02 1964.55Z" fill="#E4897B"/>
<path d="M3547.45 790.188C3546.29 796.382 3541.99 800.687 3538 799.847C3534.01 799.007 3531.8 793.443 3533.06 787.353C3534.32 781.263 3538.52 776.854 3542.51 777.694C3546.5 778.533 3548.81 784.098 3547.45 790.188Z" fill="#263238"/>
<path d="M3542.62 800.688C3531.53 817.865 3518.14 833.444 3502.82 846.99C3506.4 850.794 3510.76 853.777 3515.6 855.735C3520.44 857.692 3525.64 858.578 3530.86 858.329L3542.62 800.688Z" fill="#DE5753"/>
<path d="M3576.63 760.895C3575.64 760.869 3574.7 760.454 3574.01 759.74C3570.99 756.289 3567.21 753.598 3562.96 751.884C3558.71 750.169 3554.11 749.479 3549.55 749.87C3548.68 749.879 3547.83 749.578 3547.16 749.022C3546.49 748.466 3546.04 747.691 3545.89 746.834C3545.74 745.977 3545.9 745.095 3546.34 744.343C3546.77 743.592 3547.47 743.02 3548.29 742.73C3554.12 741.991 3560.06 742.706 3565.55 744.812C3571.05 746.919 3575.94 750.352 3579.78 754.805C3580.46 755.492 3580.83 756.415 3580.83 757.377C3580.83 758.339 3580.46 759.263 3579.78 759.95C3579.36 760.334 3578.86 760.619 3578.32 760.783C3577.77 760.946 3577.2 760.984 3576.63 760.895Z" fill="#263238"/>
<path d="M3721.11 875.968C3710.08 932.455 3699.06 1035.77 3738.54 1073.46C3738.54 1073.46 3723.1 1130.68 3618.21 1130.68C3502.72 1130.68 3563.2 1073.46 3563.2 1073.46C3626.19 1058.45 3624.41 1011.73 3613.49 967.943L3721.11 875.968Z" fill="#E4897B"/>
<path d="M3754.39 1109.06C3762.68 1081.44 3771.82 1049.84 3752.92 1039.86C3731.92 1029.37 3617.79 1017.82 3578.42 1038.29C3539.05 1058.76 3550.28 1114.94 3550.28 1114.94L3754.39 1109.06Z" fill="#263238"/>
<path d="M3996.51 3727.3C3993.25 3727.74 3989.93 3727.51 3986.76 3726.65C3983.59 3725.78 3980.62 3724.29 3978.03 3722.26C3977.11 3720.99 3976.62 3719.47 3976.62 3717.9C3976.62 3716.34 3977.11 3714.82 3978.03 3713.55C3978.63 3712.46 3979.45 3711.51 3980.45 3710.77C3981.45 3710.03 3982.59 3709.51 3983.8 3709.24C3995.14 3706.72 4016.35 3721.21 4017.3 3721.84C4017.57 3722.07 4017.78 3722.36 4017.91 3722.69C4018.04 3723.02 4018.08 3723.38 4018.03 3723.73C4017.97 3724.07 4017.81 3724.39 4017.56 3724.63C4017.32 3724.87 4017.01 3725.04 4016.67 3725.1C4010.04 3726.53 4003.29 3727.27 3996.51 3727.3ZM3986.85 3712.6H3984.64C3983.93 3712.75 3983.26 3713.05 3982.68 3713.49C3982.1 3713.92 3981.62 3714.48 3981.28 3715.12C3979.6 3718.06 3980.65 3719.32 3981.28 3719.74C3984.54 3724.15 4000.29 3724.15 4011.84 3722.26C4004.31 3717.29 3995.78 3714.07 3986.85 3712.81V3712.6Z" fill="#08732B"/>
<path d="M4016.25 3725.41H4015.41C4007.43 3721 3991.99 3704.41 3993.57 3695.59C3993.84 3694.23 3994.57 3693 3995.64 3692.12C3996.71 3691.24 3998.06 3690.76 3999.45 3690.76C4000.83 3690.61 4002.23 3690.74 4003.56 3691.14C4004.9 3691.54 4006.14 3692.19 4007.22 3693.07C4016.14 3700.42 4017.72 3722.68 4017.72 3723.63C4017.76 3723.96 4017.7 3724.3 4017.55 3724.6C4017.4 3724.89 4017.17 3725.14 4016.88 3725.31C4016.68 3725.39 4016.46 3725.42 4016.25 3725.41ZM4000.71 3693.91H4000.29C3997.87 3693.91 3997.66 3695.38 3997.56 3695.8C3996.61 3700.95 4006.48 3713.65 4014.36 3719.64C4013.83 3710.87 4010.68 3702.46 4005.33 3695.49C4004.62 3694.94 4003.81 3694.53 4002.95 3694.3C4002.08 3694.06 4001.18 3694 4000.29 3694.12L4000.71 3693.91Z" fill="#08732B"/>
<path d="M3533.38 3727.3C3523.51 3727.3 3513.95 3725.94 3510.7 3721.53C3509.88 3720.36 3509.43 3718.97 3509.43 3717.54C3509.43 3716.11 3509.88 3714.72 3510.7 3713.55C3511.34 3712.47 3512.19 3711.53 3513.2 3710.79C3514.21 3710.05 3515.36 3709.52 3516.58 3709.24C3529.28 3705.78 3556.37 3721.11 3557.53 3721.74C3557.83 3721.94 3558.08 3722.22 3558.23 3722.56C3558.38 3722.89 3558.42 3723.26 3558.37 3723.63C3558.31 3723.99 3558.13 3724.33 3557.87 3724.6C3557.6 3724.86 3557.26 3725.04 3556.9 3725.1C3549.14 3726.56 3541.27 3727.29 3533.38 3727.3ZM3521.09 3712.39C3519.94 3712.23 3518.78 3712.23 3517.63 3712.39C3516.89 3712.54 3516.19 3712.84 3515.57 3713.27C3514.96 3713.71 3514.44 3714.26 3514.06 3714.91C3512.69 3717.22 3513.22 3718.27 3514.06 3718.9C3517.52 3723.73 3537.05 3724.05 3551.54 3722.05C3542.1 3716.96 3531.76 3713.75 3521.09 3712.6V3712.39Z" fill="#08732B"/>
<path d="M3556.69 3725.41H3555.95C3546.61 3721.32 3528.23 3704.41 3529.6 3695.91C3529.6 3693.81 3531.38 3691.29 3536.42 3690.76C3538.3 3690.48 3540.21 3690.61 3542.03 3691.16C3543.84 3691.7 3545.51 3692.64 3546.92 3693.91C3556.79 3701.89 3558.79 3722.68 3558.89 3723.63C3558.93 3723.95 3558.88 3724.27 3558.76 3724.57C3558.63 3724.86 3558.42 3725.12 3558.16 3725.31C3557.93 3725.43 3557.69 3725.5 3557.43 3725.52C3557.18 3725.54 3556.92 3725.5 3556.69 3725.41ZM3537.89 3693.91H3536.74C3533.48 3693.91 3533.27 3695.59 3533.17 3696.01C3532.33 3701.26 3544.93 3714.39 3554.17 3720.06C3553.26 3711.24 3549.58 3702.93 3543.67 3696.33C3542.17 3695.03 3540.29 3694.26 3538.31 3694.12L3537.89 3693.91Z" fill="#08732B"/>
<path d="M3641.52 3723.52H3564.35L3556.69 3544.93H3633.86L3641.52 3723.52Z" fill="#E4897B"/>
<path d="M4104.65 3723.52H4027.48L3988.74 3544.93H4065.8L4104.65 3723.52Z" fill="#E4897B"/>
<path d="M4022.02 3714.6H4108.64C4110.19 3714.61 4111.68 3715.14 4112.89 3716.12C4114.09 3717.09 4114.92 3718.44 4115.26 3719.95L4130.48 3788.51C4130.83 3790.18 4130.79 3791.91 4130.38 3793.56C4129.97 3795.22 4129.19 3796.76 4128.1 3798.07C4127.01 3799.38 4125.64 3800.43 4124.09 3801.14C4122.54 3801.85 4120.85 3802.2 4119.14 3802.16C4088.9 3801.64 4074.2 3799.85 4036.09 3799.85C4012.68 3799.85 3964.38 3802.37 3931.94 3802.37C3899.49 3802.37 3895.4 3770.87 3908.63 3767.41C3968.05 3754.39 3990.42 3736.44 4009.42 3719.43C4012.87 3716.3 4017.37 3714.58 4022.02 3714.6Z" fill="#263238"/>
<path d="M3564.88 3714.6H3648.87C3650.42 3714.61 3651.91 3715.14 3653.12 3716.12C3654.32 3717.09 3655.15 3718.44 3655.49 3719.95L3670.71 3788.51C3671.07 3790.17 3671.06 3791.88 3670.67 3793.53C3670.28 3795.18 3669.52 3796.72 3668.45 3798.03C3667.37 3799.34 3666.02 3800.4 3664.49 3801.11C3662.95 3801.83 3661.27 3802.19 3659.58 3802.16C3629.24 3801.64 3585.35 3799.85 3547.13 3799.85C3502.51 3799.85 3463.87 3802.37 3411.48 3802.37C3379.98 3802.37 3371.06 3770.87 3384.28 3767.41C3444.66 3754.18 3493.9 3752.82 3546.08 3720.69C3551.64 3716.91 3558.16 3714.8 3564.88 3714.6Z" fill="#263238"/>
<path d="M3527.81 1208.91C3463.31 1203.91 3399.14 1195.39 3335.57 1183.39C3304.07 1177.3 3271.94 1170.48 3240.02 1161.87C3207.31 1153.49 3175.18 1142.97 3143.85 1130.37C3135.76 1127.01 3127.57 1123.34 3119.49 1119.87C3110.39 1115.39 3101.62 1110.26 3093.24 1104.54C3078.12 1094.57 3065.1 1084.17 3052.19 1073.88C3026.46 1052.88 3002.63 1031.88 2978.69 1010.36C2931.76 966.893 2887.24 921.956 2844.3 874.708L2882.94 831.556L3035.28 941.065C3060.38 959.124 3085.79 976.868 3110.77 993.562C3123.16 1001.86 3135.87 1009.63 3147.52 1016.24C3152.4 1019.02 3157.45 1021.48 3162.64 1023.59C3168.84 1026.01 3175.14 1028.42 3181.75 1030.73C3238.5 1048.2 3296.53 1061.19 3355.31 1069.58C3415.26 1079.03 3477.21 1086.8 3537.05 1093.1L3527.81 1208.91Z" fill="#E4897B"/>
<path d="M3876.6 1090.89C3948.95 1107.48 4022.02 1318.83 4022.02 1318.83L3873.24 1425.61C3873.24 1425.61 3831.25 1327.13 3790.72 1241.03C3748.3 1150.84 3802.69 1073.99 3876.6 1090.89Z" fill="#08732B"/>
<path opacity="0.4" d="M3876.6 1090.89C3948.95 1107.48 4022.02 1318.83 4022.02 1318.83L3873.24 1425.61C3873.24 1425.61 3831.25 1327.13 3790.72 1241.03C3748.3 1150.84 3802.69 1073.99 3876.6 1090.89Z" fill="black"/>
<path d="M3834.92 1206.39L3805.42 1272.43C3835.97 1338.36 3863.9 1403.67 3871.35 1421.1C3870.3 1343.09 3855.5 1246.28 3834.92 1206.39Z" fill="#08732B"/>
<path opacity="0.6" d="M3834.92 1206.39L3805.42 1272.43C3835.97 1338.36 3863.9 1403.67 3871.35 1421.1C3870.3 1343.09 3855.5 1246.28 3834.92 1206.39Z" fill="black"/>
<path d="M3444.55 1094.88C3444.55 1094.88 3362.45 1187.59 3439.93 1761.6H3852.46C3855.4 1698.6 3815.6 1389.29 3876.6 1090.89C3831.01 1082.11 3784.89 1076.29 3738.54 1073.46C3680.14 1070.1 3621.59 1070.1 3563.2 1073.46C3523.15 1077.5 3483.48 1084.66 3444.55 1094.88Z" fill="#08732B"/>
<path opacity="0.4" d="M3444.55 1094.88C3444.55 1094.88 3362.45 1187.59 3439.93 1761.6H3852.46C3855.4 1698.6 3815.6 1389.29 3876.6 1090.89C3831.01 1082.11 3784.89 1076.29 3738.54 1073.46C3680.14 1070.1 3621.59 1070.1 3563.2 1073.46C3523.15 1077.5 3483.48 1084.66 3444.55 1094.88Z" fill="black"/>
<path d="M3414 1206.39C3411.27 1228.12 3409.17 1253.84 3407.8 1284.19C3448.54 1271.96 3487.25 1253.77 3522.67 1230.22L3414 1206.39Z" fill="#08732B"/>
<path opacity="0.6" d="M3414 1206.39C3411.27 1228.12 3409.17 1253.84 3407.8 1284.19C3448.54 1271.96 3487.25 1253.77 3522.67 1230.22L3414 1206.39Z" fill="black"/>
<path d="M3590.81 1217.94C3535.58 1266.86 3324.75 1261.93 3324.75 1261.93L3317.82 1057.82C3389.02 1067.96 3460.83 1073.15 3532.75 1073.36C3650.24 1070.94 3651.08 1163.97 3590.81 1217.94Z" fill="#08732B"/>
<path opacity="0.4" d="M3590.81 1217.94C3535.58 1266.86 3324.75 1261.93 3324.75 1261.93L3317.82 1057.82C3389.02 1067.96 3460.83 1073.15 3532.75 1073.36C3650.24 1070.94 3651.08 1163.97 3590.81 1217.94Z" fill="black"/>
<path d="M2884.93 831.975L2832.43 770.134L2775.84 833.13C2775.84 833.13 2810.7 891.717 2866.03 882.478L2884.93 831.975Z" fill="#E4897B"/>
<path d="M2757.26 698.003L2736.89 778.744L2775.42 832.711L2832.01 770.134L2757.26 698.003Z" fill="#E4897B"/>
<path d="M3556.69 3545.03L3560.68 3637.01H3637.85L3633.86 3545.03H3556.69Z" fill="#CE6F64"/>
<path d="M4065.91 3545.03H3988.74L4008.69 3637.01H4085.86L4065.91 3545.03Z" fill="#CE6F64"/>
<path d="M3603.09 713.962C3533.9 682.464 3512.06 542.506 3711.13 577.469C3711.13 577.469 3681.1 610.648 3742 631.646C3802.9 652.645 3751.98 782.313 3603.09 713.962Z" fill="#263238"/>
<path d="M3753.45 818.956C3733.6 892.452 3725.83 937.18 3679.95 967.943C3611.28 1014.14 3525.92 961.119 3523.19 882.688C3520.78 812.237 3553.64 703.147 3632.91 688.238C3650.41 684.807 3668.49 685.917 3685.44 691.46C3702.39 697.004 3717.63 706.797 3729.72 719.905C3741.8 733.013 3750.33 749 3754.48 766.339C3758.64 783.679 3758.28 801.794 3753.45 818.956Z" fill="#E4897B"/>
<path d="M3708.4 614.217C3755.55 640.466 3819.38 656.215 3813.4 693.593C3805.52 739.265 3851.93 710.707 3841.12 778.638C3834.08 823.051 3752.19 957.654 3694.12 951.144C3607.4 940.645 3618.42 808.772 3618.11 739.266C3617.9 698.213 3616.01 562.455 3708.4 614.217Z" fill="#263238"/>
<path d="M3607.71 673.119C3586.71 678.054 3558.89 799.112 3640.26 810.242C3733.81 822.946 3607.71 673.119 3607.71 673.119Z" fill="#263238"/>
<path d="M3609.81 716.062C3584.09 718.371 3525.82 687.398 3532.96 640.781C3532.96 640.466 3569.81 695.273 3609.81 716.062Z" fill="#263238"/>
<path d="M3648.03 819.901C3640.14 837.213 3626.74 851.425 3609.92 860.324C3587.76 871.874 3575.27 855.075 3580.31 832.816C3584.82 812.867 3601.83 782.733 3624.62 780.319C3647.4 777.904 3657.17 798.902 3648.03 819.901Z" fill="#E4897B"/>
<path d="M3763.52 734.961C3779.22 728.152 3792.97 717.557 3803.56 704.126C3814.16 690.695 3821.25 674.846 3824.21 658C3824.21 658 3858.86 754.28 3763.52 734.961Z" fill="#263238"/>
<path d="M3851.09 733.386C3843.78 728.479 3835.38 725.46 3826.62 724.598C3817.86 723.737 3809.02 725.061 3800.9 728.451C3800.9 728.451 3833.24 686.558 3851.09 733.386Z" fill="#263238"/>
<path d="M3586.29 1761.6C3586.29 1761.6 3673.86 2351.03 3721.84 2571.84C3774.34 2813.33 3972.78 3619.26 3972.78 3619.26H4114C4114 3619.26 3983.28 2833.17 3953.25 2593.36C3920.7 2333.5 3852.46 1761.18 3852.46 1761.18L3586.29 1761.6Z" fill="#08732B"/>
<path opacity="0.5" d="M3586.29 1761.6C3586.29 1761.6 3673.86 2351.03 3721.84 2571.84C3774.34 2813.33 3972.78 3619.26 3972.78 3619.26H4114C4114 3619.26 3983.28 2833.17 3953.25 2593.36C3920.7 2333.5 3852.46 1761.18 3852.46 1761.18L3586.29 1761.6Z" fill="white"/>
<path d="M3950.21 3567.19C3949.58 3567.19 3964.8 3621.47 3964.8 3621.47H4123.76L4120.82 3573.06L3950.21 3567.19Z" fill="#08732B"/>
<path opacity="0.1" d="M3950.21 3567.19C3949.58 3567.19 3964.8 3621.47 3964.8 3621.47H4123.76L4120.82 3573.06L3950.21 3567.19Z" fill="black"/>
<path d="M3641.63 1971.58C3742.84 1991.43 3732.13 2368.88 3719.95 2563.02C3690.76 2425.79 3648.03 2161.73 3618.84 1974.31C3625.9 1970.84 3633.94 1969.87 3641.63 1971.58Z" fill="#08732B"/>
<path opacity="0.4" d="M3641.63 1971.58C3742.84 1991.43 3732.13 2368.88 3719.95 2563.02C3690.76 2425.79 3648.03 2161.73 3618.84 1974.31C3625.9 1970.84 3633.94 1969.87 3641.63 1971.58Z" fill="white"/>
<path d="M3439.93 1761.6C3439.93 1761.6 3429.43 2338.23 3437.73 2573.52C3446.44 2818.15 3532.22 3619.26 3532.22 3619.26H3662.84C3662.84 3619.26 3667.67 2832.43 3673.33 2592.21C3679.74 2330.25 3711.34 1761.6 3711.34 1761.6H3439.93Z" fill="#08732B"/>
<path opacity="0.5" d="M3439.93 1761.6C3439.93 1761.6 3429.43 2338.23 3437.73 2573.52C3446.44 2818.15 3532.22 3619.26 3532.22 3619.26H3662.84C3662.84 3619.26 3667.67 2832.43 3673.33 2592.21C3679.74 2330.25 3711.34 1761.6 3711.34 1761.6H3439.93Z" fill="white"/>
<path d="M3559.31 3525.4C3558.99 3525.4 3558.69 3525.28 3558.45 3525.07C3558.22 3524.85 3558.08 3524.56 3558.05 3524.24C3534.95 3302.49 3480.67 2765.97 3474.06 2573.52C3467.02 2377.07 3473.42 1936.31 3475.52 1805.9C3475.52 1805.57 3475.66 1805.25 3475.89 1805.01C3476.13 1804.78 3476.45 1804.64 3476.79 1804.64C3477.13 1804.64 3477.46 1804.77 3477.71 1805.01C3477.97 1805.24 3478.12 1805.56 3478.15 1805.9C3476.05 1936.31 3469.65 2377.07 3476.68 2573.41C3483.5 2765.87 3537.79 3302.18 3560.68 3523.93C3560.68 3524.28 3560.55 3524.63 3560.32 3524.9C3560.09 3525.17 3559.77 3525.35 3559.42 3525.4H3559.31Z" fill="#08732B"/>
<path opacity="0.4" d="M3559.31 3525.4C3558.99 3525.4 3558.69 3525.28 3558.45 3525.07C3558.22 3524.85 3558.08 3524.56 3558.05 3524.24C3534.95 3302.49 3480.67 2765.97 3474.06 2573.52C3467.02 2377.07 3473.42 1936.31 3475.52 1805.9C3475.52 1805.57 3475.66 1805.25 3475.89 1805.01C3476.13 1804.78 3476.45 1804.64 3476.79 1804.64C3477.13 1804.64 3477.46 1804.77 3477.71 1805.01C3477.97 1805.24 3478.12 1805.56 3478.15 1805.9C3476.05 1936.31 3469.65 2377.07 3476.68 2573.41C3483.5 2765.87 3537.79 3302.18 3560.68 3523.93C3560.68 3524.28 3560.55 3524.63 3560.32 3524.9C3560.09 3525.17 3559.77 3525.35 3559.42 3525.4H3559.31Z" fill="white"/>
<path d="M3506.81 3567.19C3506.29 3567.19 3514.27 3621.47 3514.27 3621.47H3673.12L3677.43 3573.06L3506.81 3567.19Z" fill="#08732B"/>
<path opacity="0.1" d="M3506.81 3567.19C3506.29 3567.19 3514.27 3621.47 3514.27 3621.47H3673.12L3677.43 3573.06L3506.81 3567.19Z" fill="black"/>
</svg>
